<?xml version="1.0" encoding="UTF-8"?>
<!DOCTYPE svg PUBLIC "-//W3C//DTD SVG 1.1//EN" "http://www.w3.org/Graphics/SVG/1.1/DTD/svg11.dtd">
<!-- Creator: CorelDRAW 2017 -->
<svg xmlns="http://www.w3.org/2000/svg" xml:space="preserve" width="590.903mm" height="105.833mm" version="1.1" style="shape-rendering:geometricPrecision; text-rendering:geometricPrecision; image-rendering:optimizeQuality; fill-rule:evenodd; clip-rule:evenodd"
viewBox="0 0 59090 10583"
 xmlns:xlink="http://www.w3.org/1999/xlink">
 <defs>
  <style type="text/css">
   <![CDATA[
    .str0 {stroke:black;stroke-width:35.28;stroke-linecap:square}
    .fil0 {fill:none;fill-rule:nonzero}
    .fil1 {fill:black;fill-rule:nonzero}
   ]]>
  </style>
 </defs>
 <g id="Слой_x0020_1">
  <metadata id="CorelCorpID_0Corel-Layer"/>
  <line class="fil0 str0" x1="29528" y1="1058" x2="29528" y2= "1411" />
  <rect class="fil1" x="29510" y="1393" width="35" height="35"/>
  <line class="fil0 str0" x1="29528" y1="1411" x2="1341" y2= "1411" />
  <rect class="fil1" x="1323" y="1393" width="35" height="35"/>
  <rect class="fil1" x="1323" y="1393" width="35" height="35"/>
  <line class="fil0 str0" x1="1341" y1="1411" x2="1341" y2= "1764" />
  <line class="fil0 str0" x1="1341" y1="1764" x2="1411" y2= "1552" />
  <line class="fil0 str0" x1="1341" y1="1764" x2="1270" y2= "1552" />
  <path class="fil1" d="M639 2469l0 -303 40 0 0 303 -40 0zm106 0l0 -219 33 0 0 31c7,-11 16,-20 28,-26 11,-6 24,-10 39,-10 16,0 29,3 40,10 11,7 18,16 22,28 18,-25 40,-38 68,-38 22,0 39,6 50,18 12,12 17,31 17,56l0 151 -37 0 0 -138c0,-15 -1,-25 -4,-32 -2,-7 -7,-12 -13,-16 -6,-4 -14,-6 -23,-6 -16,0 -28,5 -38,15 -10,11 -15,27 -15,50l0 127 -37 0 0 -143c0,-17 -3,-29 -9,-37 -6,-9 -16,-12 -30,-12 -11,0 -20,2 -29,8 -9,6 -16,14 -19,24 -4,11 -6,26 -6,46l0 114 -37 0zm353 84l0 -304 34 0 0 28c8,-11 17,-19 27,-25 10,-6 23,-8 37,-8 19,0 35,5 50,14 14,10 25,23 32,41 7,18 11,37 11,58 0,23 -4,43 -12,61 -8,18 -19,32 -35,41 -16,10 -32,14 -49,14 -12,0 -24,-2 -34,-8 -10,-5 -18,-12 -24,-19l0 107 -37 0zm34 -193c0,28 6,49 17,63 12,13 25,20 42,20 17,0 31,-7 42,-21 12,-14 18,-36 18,-65 0,-28 -6,-49 -17,-63 -12,-14 -25,-20 -42,-20 -16,0 -30,7 -42,22 -12,15 -18,36 -18,65zm188 -1c0,-41 11,-71 34,-90 19,-16 42,-24 69,-24 30,0 55,10 74,30 19,19 29,47 29,82 0,28 -4,50 -13,67 -8,16 -21,29 -37,38 -16,9 -34,13 -53,13 -31,0 -55,-10 -74,-30 -19,-19 -28,-48 -28,-85zm38 0c0,28 6,49 18,63 12,14 28,21 46,21 19,0 34,-7 46,-21 12,-14 18,-35 18,-64 0,-27 -6,-48 -18,-62 -12,-14 -28,-21 -46,-21 -18,0 -34,7 -46,20 -12,14 -18,35 -18,63zm211 110l0 -219 34 0 0 33c8,-16 16,-26 24,-31 7,-5 15,-7 24,-7 12,0 25,4 38,12l-13 35c-9,-5 -18,-8 -27,-8 -8,0 -16,2 -22,7 -7,5 -11,12 -14,21 -4,13 -6,28 -6,43l0 115 -37 0zm223 -33l5 32c-11,2 -20,4 -28,4 -14,0 -24,-2 -31,-6 -7,-4 -13,-10 -16,-17 -3,-7 -5,-22 -5,-44l0 -126 -27 0 0 -29 27 0 0 -55 37 -22 0 77 37 0 0 29 -37 0 0 128c0,11 0,18 2,20 1,3 4,5 6,7 3,2 7,2 13,2 4,0 10,0 17,-1zm22 -32l36 -6c2,15 8,26 18,34 9,8 23,12 40,12 17,0 30,-4 38,-10 8,-7 12,-15 12,-25 0,-8 -4,-15 -11,-20 -5,-4 -18,-7 -38,-13 -27,-7 -46,-13 -56,-18 -11,-5 -18,-12 -24,-20 -6,-9 -8,-19 -8,-30 0,-10 2,-18 7,-27 5,-8 11,-16 18,-21 6,-4 14,-7 24,-10 10,-3 21,-5 32,-5 17,0 32,2 45,7 13,5 23,12 29,20 6,8 10,20 12,34l-36 5c-1,-11 -6,-20 -14,-26 -8,-6 -19,-10 -34,-10 -17,0 -29,3 -36,8 -7,6 -11,12 -11,20 0,5 1,9 5,13 3,4 8,7 14,10 4,1 15,5 33,10 26,7 45,13 55,18 10,4 18,11 24,19 6,8 9,19 9,32 0,13 -4,24 -11,35 -7,11 -17,19 -31,25 -13,6 -29,9 -46,9 -29,0 -50,-6 -65,-18 -15,-12 -24,-29 -29,-53z"/>
  <polygon class="fil0 str0" points="212,2611 2505,2611 2505,1764 212,1764 "/>
  <line class="fil0 str0" x1="29528" y1="1058" x2="29528" y2= "1411" />
  <rect class="fil1" x="29510" y="1393" width="35" height="35"/>
  <line class="fil0 str0" x1="29528" y1="1411" x2="31009" y2= "1411" />
  <rect class="fil1" x="30992" y="1393" width="35" height="35"/>
  <rect class="fil1" x="30992" y="1393" width="35" height="35"/>
  <line class="fil0 str0" x1="31009" y1="1411" x2="31009" y2= "1764" />
  <line class="fil0 str0" x1="31009" y1="1764" x2="31080" y2= "1552" />
  <line class="fil0 str0" x1="31009" y1="1764" x2="30939" y2= "1552" />
  <line class="fil0 str0" x1="31009" y1="2611" x2="31009" y2= "2963" />
  <rect class="fil1" x="30992" y="2946" width="35" height="35"/>
  <rect class="fil1" x="30992" y="2946" width="35" height="35"/>
  <rect class="fil1" x="30992" y="2946" width="35" height="35"/>
  <rect class="fil1" x="30992" y="2946" width="35" height="35"/>
  <line class="fil0 str0" x1="31009" y1="2963" x2="31009" y2= "3316" />
  <line class="fil0 str0" x1="31009" y1="3316" x2="31115" y2= "3104" />
  <line class="fil0 str0" x1="31009" y1="3316" x2="30939" y2= "3104" />
  <line class="fil0 str0" x1="31009" y1="4163" x2="31009" y2= "4516" />
  <rect class="fil1" x="30992" y="4498" width="35" height="35"/>
  <line class="fil0 str0" x1="31009" y1="4516" x2="28046" y2= "4516" />
  <rect class="fil1" x="28028" y="4498" width="35" height="35"/>
  <rect class="fil1" x="28028" y="4498" width="35" height="35"/>
  <line class="fil0 str0" x1="28046" y1="4516" x2="28046" y2= "4868" />
  <line class="fil0 str0" x1="28046" y1="4868" x2="28116" y2= "4657" />
  <line class="fil0 str0" x1="28046" y1="4868" x2="27940" y2= "4657" />
  <line class="fil0 str0" x1="28046" y1="5715" x2="28046" y2= "6068" />
  <rect class="fil1" x="28028" y="6050" width="35" height="35"/>
  <line class="fil0 str0" x1="28046" y1="6068" x2="4974" y2= "6068" />
  <rect class="fil1" x="4957" y="6050" width="35" height="35"/>
  <rect class="fil1" x="4957" y="6050" width="35" height="35"/>
  <line class="fil0 str0" x1="4974" y1="6068" x2="4974" y2= "6421" />
  <line class="fil0 str0" x1="4974" y1="6421" x2="5045" y2= "6209" />
  <line class="fil0 str0" x1="4974" y1="6421" x2="4904" y2= "6209" />
  <line class="fil0 str0" x1="4974" y1="7267" x2="4974" y2= "7620" />
  <rect class="fil1" x="4957" y="7602" width="35" height="35"/>
  <line class="fil0 str0" x1="4974" y1="7620" x2="4092" y2= "7620" />
  <rect class="fil1" x="4075" y="7602" width="35" height="35"/>
  <rect class="fil1" x="4075" y="7602" width="35" height="35"/>
  <line class="fil0 str0" x1="4092" y1="7620" x2="4092" y2= "7973" />
  <line class="fil0 str0" x1="4092" y1="7973" x2="4163" y2= "7761" />
  <line class="fil0 str0" x1="4092" y1="7973" x2="4022" y2= "7761" />
  <path class="fil1" d="M3812 8608l38 4c-6,23 -17,40 -34,53 -17,12 -38,19 -63,19 -32,0 -58,-10 -77,-30 -19,-20 -28,-48 -28,-83 0,-37 10,-65 29,-86 19,-20 44,-31 74,-31 30,0 54,10 72,30 19,20 28,48 28,85 0,2 0,5 0,10l-164 0c1,24 8,43 20,55 12,13 28,19 46,19 13,0 25,-4 35,-11 10,-7 17,-18 23,-34zm-122 -60l122 0c-1,-19 -6,-33 -14,-42 -12,-14 -28,-22 -46,-22 -17,0 -32,6 -43,17 -12,12 -18,27 -19,47zm207 131l0 -219 33 0 0 31c16,-24 40,-36 70,-36 13,0 25,2 37,7 11,5 20,11 25,19 6,7 10,17 12,27 1,7 2,19 2,36l0 135 -37 0 0 -133c0,-16 -1,-27 -4,-34 -3,-7 -8,-13 -16,-18 -7,-5 -16,-7 -26,-7 -16,0 -29,5 -41,15 -12,10 -17,29 -17,57l0 120 -37 0zm316 -33l6 32c-11,2 -20,4 -28,4 -13,0 -24,-2 -31,-6 -7,-4 -13,-10 -16,-17 -3,-7 -5,-22 -5,-44l0 -126 -27 0 0 -29 27 0 0 -55 37 -22 0 77 37 0 0 29 -37 0 0 128c0,11 1,18 2,20 1,3 4,5 6,7 3,2 7,2 13,2 5,0 10,0 17,-1zm36 33l0 -219 34 0 0 33c8,-16 16,-26 23,-31 7,-5 15,-7 24,-7 12,0 25,4 38,12l-13 35c-9,-5 -18,-8 -27,-8 -8,0 -16,2 -22,7 -6,5 -11,12 -13,21 -5,13 -7,28 -7,43l0 115 -37 0zm140 84l-5 -35c8,2 16,3 22,3 8,0 15,-1 20,-4 5,-3 9,-6 12,-11 2,-4 6,-13 12,-28 0,-2 1,-5 3,-9l-84 -220 40 0 46 127c6,16 11,33 16,51 4,-17 10,-34 15,-50l47 -128 37 0 -83 223c-9,24 -16,41 -21,50 -7,12 -14,22 -23,27 -9,6 -19,8 -31,8 -7,0 -15,-2 -24,-5z"/>
  <polygon class="fil0 str0" points="3210,8819 5009,8819 5009,7973 3210,7973 "/>
  <line class="fil0 str0" x1="4974" y1="7267" x2="4974" y2= "7620" />
  <rect class="fil1" x="4957" y="7602" width="35" height="35"/>
  <line class="fil0 str0" x1="4974" y1="7620" x2="6244" y2= "7620" />
  <rect class="fil1" x="6227" y="7602" width="35" height="35"/>
  <rect class="fil1" x="6227" y="7602" width="35" height="35"/>
  <line class="fil0 str0" x1="6244" y1="7620" x2="6244" y2= "7973" />
  <line class="fil0 str0" x1="6244" y1="7973" x2="6315" y2= "7761" />
  <line class="fil0 str0" x1="6244" y1="7973" x2="6138" y2= "7761" />
  <path class="fil1" d="M6102 8722l0 -37c-18,-3 -33,-7 -45,-13 -12,-6 -22,-16 -30,-29 -8,-13 -13,-30 -15,-49l37 -7c3,20 8,35 16,44 11,13 23,20 37,23l0 -119c-15,-3 -31,-9 -47,-18 -12,-7 -21,-16 -28,-27 -6,-12 -10,-25 -10,-40 0,-26 10,-48 28,-64 12,-11 31,-18 55,-20l0 -18 22 0 0 18c22,2 39,8 51,19 17,13 26,32 30,55l-39 6c-2,-15 -7,-26 -14,-34 -7,-8 -17,-13 -29,-15l0 107c19,5 31,8 37,11 11,5 21,11 28,19 7,7 13,16 17,26 4,10 6,21 6,33 0,26 -8,47 -25,65 -16,17 -37,26 -64,28l0 37 -22 0zm0 -326c-14,2 -25,8 -34,17 -8,10 -12,20 -12,34 0,12 4,23 11,32 7,8 19,16 36,20l0 -103zm22 258c15,-2 26,-8 36,-19 10,-11 14,-24 14,-40 0,-13 -4,-24 -10,-32 -7,-8 -20,-15 -40,-22l0 114zm286 -46l38 4c-6,23 -17,40 -34,53 -17,12 -37,19 -63,19 -32,0 -58,-10 -76,-30 -19,-20 -29,-48 -29,-83 0,-37 10,-65 29,-86 19,-20 44,-31 74,-31 29,0 53,10 72,30 18,20 28,48 28,85 0,2 0,5 0,10l-164 0c1,24 8,43 20,55 12,13 28,19 46,19 14,0 25,-4 35,-11 10,-7 17,-18 23,-34zm-122 -60l122 0c-2,-19 -6,-33 -14,-42 -12,-14 -28,-22 -47,-22 -17,0 -32,6 -43,17 -12,12 -18,27 -19,47z"/>
  <polygon class="fil0 str0" points="5715,8819 6773,8819 6773,7973 5715,7973 "/>
  <path class="fil1" d="M4271 7020l40 11c-8,33 -24,58 -45,75 -22,17 -48,26 -80,26 -33,0 -59,-7 -80,-20 -21,-13 -36,-32 -47,-58 -11,-25 -16,-53 -16,-82 0,-32 6,-59 18,-83 12,-24 29,-42 52,-54 22,-12 47,-18 74,-18 30,0 55,7 76,23 21,16 35,37 43,65l-40 9c-7,-22 -17,-38 -31,-48 -13,-10 -30,-15 -50,-15 -23,0 -42,6 -58,17 -16,11 -27,26 -33,45 -6,19 -10,38 -10,59 0,26 4,48 11,67 7,19 19,33 35,43 16,10 33,14 52,14 22,0 41,-6 57,-19 16,-13 26,-32 32,-58zm71 -3c0,-41 11,-71 34,-90 19,-16 42,-24 69,-24 30,0 55,10 74,30 19,19 29,47 29,82 0,28 -4,50 -13,67 -8,16 -21,29 -37,38 -17,9 -34,13 -53,13 -31,0 -55,-10 -74,-30 -19,-19 -29,-48 -29,-85zm38 0c0,28 6,49 18,63 12,14 28,21 46,21 19,0 34,-7 46,-21 12,-14 18,-35 18,-64 0,-27 -6,-48 -19,-62 -12,-14 -28,-21 -46,-21 -18,0 -34,7 -46,20 -12,14 -18,35 -18,63zm211 110l0 -219 33 0 0 31c16,-24 40,-36 70,-36 13,0 25,2 37,7 11,5 19,11 25,19 5,7 9,17 12,27 1,7 1,19 1,36l0 135 -37 0 0 -133c0,-16 -1,-27 -5,-34 -3,-7 -8,-13 -16,-18 -7,-5 -16,-7 -26,-7 -16,0 -30,5 -41,15 -12,10 -18,29 -18,57l0 120 -37 0zm378 0l0 -28c-14,22 -34,32 -61,32 -18,0 -34,-5 -49,-14 -14,-10 -26,-23 -34,-41 -8,-17 -12,-37 -12,-60 0,-22 4,-42 11,-60 7,-18 18,-32 33,-41 15,-10 31,-14 49,-14 13,0 25,3 35,8 10,5 19,12 25,21l0 -108 37 0 0 303 -35 0zm-118 -110c0,28 6,49 18,63 12,14 26,21 42,21 16,0 30,-7 41,-20 12,-13 17,-33 17,-61 0,-30 -6,-52 -17,-66 -12,-14 -26,-21 -43,-21 -16,0 -30,7 -41,20 -11,13 -17,35 -17,64zm211 -151l0 -43 38 0 0 43 -38 0zm0 260l0 -219 38 0 0 219 -38 0zm175 -33l5 32c-11,2 -20,4 -28,4 -14,0 -24,-2 -31,-6 -7,-4 -13,-10 -16,-17 -3,-7 -5,-22 -5,-44l0 -126 -27 0 0 -29 27 0 0 -55 37 -22 0 77 38 0 0 29 -38 0 0 128c0,11 1,18 2,20 1,3 4,5 6,7 3,2 7,2 13,2 4,0 10,0 17,-1zm36 -227l0 -43 38 0 0 43 -38 0zm0 260l0 -219 38 0 0 219 -38 0zm80 -110c0,-41 11,-71 34,-90 19,-16 42,-24 69,-24 30,0 55,10 74,30 19,19 29,47 29,82 0,28 -4,50 -13,67 -8,16 -21,29 -37,38 -16,9 -34,13 -53,13 -31,0 -55,-10 -74,-30 -19,-19 -28,-48 -28,-85zm38 0c0,28 6,49 18,63 12,14 28,21 46,21 19,0 34,-7 46,-21 12,-14 18,-35 18,-64 0,-27 -6,-48 -18,-62 -12,-14 -28,-21 -46,-21 -18,0 -34,7 -46,20 -12,14 -18,35 -18,63zm211 110l0 -219 33 0 0 31c16,-24 40,-36 70,-36 13,0 25,2 37,7 11,5 19,11 25,19 5,7 9,17 11,27 1,7 2,19 2,36l0 135 -37 0 0 -133c0,-16 -1,-27 -4,-34 -3,-7 -8,-13 -16,-18 -7,-5 -16,-7 -26,-7 -16,0 -30,5 -41,15 -11,10 -17,29 -17,57l0 120 -37 0z"/>
  <polygon class="fil0 str0" points="3598,7267 6385,7267 6385,6421 3598,6421 "/>
  <line class="fil0 str0" x1="28046" y1="5715" x2="28046" y2= "6068" />
  <rect class="fil1" x="28028" y="6050" width="35" height="35"/>
  <line class="fil0 str0" x1="28046" y1="6068" x2="30163" y2= "6068" />
  <rect class="fil1" x="30145" y="6050" width="35" height="35"/>
  <rect class="fil1" x="30145" y="6050" width="35" height="35"/>
  <line class="fil0 str0" x1="30163" y1="6068" x2="30163" y2= "6421" />
  <line class="fil0 str0" x1="30163" y1="6421" x2="30233" y2= "6209" />
  <line class="fil0 str0" x1="30163" y1="6421" x2="30092" y2= "6209" />
  <line class="fil0 str0" x1="30163" y1="7267" x2="30163" y2= "7620" />
  <rect class="fil1" x="30145" y="7602" width="35" height="35"/>
  <line class="fil0 str0" x1="30163" y1="7620" x2="8361" y2= "7620" />
  <rect class="fil1" x="8343" y="7602" width="35" height="35"/>
  <rect class="fil1" x="8343" y="7602" width="35" height="35"/>
  <line class="fil0 str0" x1="8361" y1="7620" x2="8361" y2= "7973" />
  <line class="fil0 str0" x1="8361" y1="7973" x2="8431" y2= "7761" />
  <line class="fil0 str0" x1="8361" y1="7973" x2="8290" y2= "7761" />
  <path class="fil1" d="M7894 8678l0 -303 37 0 0 303 -37 0zm239 -27c-14,12 -28,20 -40,25 -13,5 -26,7 -41,7 -24,0 -43,-6 -56,-18 -13,-12 -19,-27 -19,-45 0,-11 2,-20 7,-30 5,-9 11,-16 19,-22 8,-5 17,-9 27,-12 7,-2 18,-4 33,-6 30,-4 52,-8 66,-13 0,-5 0,-8 0,-10 0,-16 -4,-26 -11,-32 -10,-8 -24,-12 -42,-12 -17,0 -30,3 -38,9 -8,6 -15,17 -19,32l-36 -5c3,-16 9,-28 16,-38 8,-10 19,-17 33,-22 14,-5 31,-8 50,-8 19,0 34,2 45,7 12,4 21,10 26,17 6,6 9,15 12,25 1,6 1,18 1,34l0 50c0,35 1,56 2,66 2,9 5,18 10,26l-39 0c-4,-8 -6,-17 -7,-27zm-4 -83c-13,5 -34,10 -61,14 -15,2 -26,5 -32,7 -6,3 -11,7 -14,12 -4,5 -5,11 -5,18 0,10 4,18 11,25 7,7 18,10 33,10 14,0 27,-3 38,-9 11,-6 19,-15 25,-26 4,-8 6,-21 6,-37l0 -14zm130 110l-35 0 0 -303 37 0 0 108c16,-19 36,-29 60,-29 13,0 26,3 38,8 12,5 22,13 30,23 8,10 14,22 18,36 4,14 7,29 7,45 0,37 -10,66 -28,87 -19,20 -41,31 -67,31 -26,0 -47,-11 -61,-32l0 28zm-1 -111c0,26 4,45 11,57 12,19 27,29 48,29 16,0 30,-7 42,-21 12,-14 18,-35 18,-63 0,-29 -6,-50 -17,-64 -11,-14 -25,-20 -41,-20 -16,0 -30,7 -42,21 -12,14 -18,35 -18,61zm352 41l38 4c-6,23 -17,40 -34,53 -17,12 -37,19 -63,19 -32,0 -57,-10 -76,-30 -19,-20 -29,-48 -29,-83 0,-37 10,-65 29,-86 19,-20 44,-31 74,-31 29,0 53,10 72,30 18,20 28,48 28,85 0,2 0,5 0,10l-164 0c2,24 8,43 20,55 12,13 28,19 46,19 14,0 25,-4 35,-11 10,-7 17,-18 23,-34zm-122 -60l122 0c-2,-19 -6,-33 -14,-42 -12,-14 -28,-22 -47,-22 -17,0 -32,6 -43,17 -12,12 -18,27 -19,47zm206 131l0 -303 38 0 0 303 -38 0z"/>
  <polygon class="fil0 str0" points="7479,8819 9278,8819 9278,7973 7479,7973 "/>
  <line class="fil0 str0" x1="30163" y1="7267" x2="30163" y2= "7620" />
  <rect class="fil1" x="30145" y="7602" width="35" height="35"/>
  <line class="fil0 str0" x1="30163" y1="7620" x2="10513" y2= "7620" />
  <rect class="fil1" x="10495" y="7602" width="35" height="35"/>
  <rect class="fil1" x="10495" y="7602" width="35" height="35"/>
  <line class="fil0 str0" x1="10513" y1="7620" x2="10513" y2= "7973" />
  <line class="fil0 str0" x1="10513" y1="7973" x2="10583" y2= "7761" />
  <line class="fil0 str0" x1="10513" y1="7973" x2="10407" y2= "7761" />
  <path class="fil1" d="M10442 8722l0 -37c-18,-3 -33,-7 -45,-13 -12,-6 -22,-16 -30,-29 -8,-13 -13,-30 -15,-49l37 -7c3,20 8,35 16,44 11,13 23,20 37,23l0 -119c-15,-3 -31,-9 -47,-18 -12,-7 -21,-16 -28,-27 -6,-12 -10,-25 -10,-40 0,-26 10,-48 28,-64 12,-11 31,-18 55,-20l0 -18 22 0 0 18c22,2 39,8 51,19 17,13 26,32 30,55l-39 6c-2,-15 -7,-26 -14,-34 -7,-8 -17,-13 -29,-15l0 107c19,5 31,8 37,11 11,5 21,11 28,19 7,7 13,16 17,26 4,10 6,21 6,33 0,26 -8,47 -25,65 -16,17 -37,26 -64,28l0 37 -22 0zm0 -326c-14,2 -25,8 -34,17 -8,10 -12,20 -12,34 0,12 4,23 11,32 7,8 19,16 36,20l0 -103zm22 258c14,-2 26,-8 36,-19 10,-11 14,-24 14,-40 0,-13 -4,-24 -10,-32 -7,-8 -20,-15 -40,-22l0 114zm135 25l0 -303 37 0 0 303 -37 0z"/>
  <polygon class="fil0 str0" points="9984,8819 11042,8819 11042,7973 9984,7973 "/>
  <line class="fil0 str0" x1="30163" y1="7267" x2="30163" y2= "7620" />
  <rect class="fil1" x="30145" y="7602" width="35" height="35"/>
  <line class="fil0 str0" x1="30163" y1="7620" x2="21096" y2= "7620" />
  <rect class="fil1" x="21079" y="7602" width="35" height="35"/>
  <rect class="fil1" x="21079" y="7602" width="35" height="35"/>
  <line class="fil0 str0" x1="21096" y1="7620" x2="21096" y2= "7973" />
  <line class="fil0 str0" x1="21096" y1="7973" x2="21167" y2= "7761" />
  <line class="fil0 str0" x1="21096" y1="7973" x2="20990" y2= "7761" />
  <line class="fil0 str0" x1="21096" y1="8819" x2="21096" y2= "9172" />
  <rect class="fil1" x="21079" y="9155" width="35" height="35"/>
  <line class="fil0 str0" x1="21096" y1="9172" x2="12277" y2= "9172" />
  <rect class="fil1" x="12259" y="9155" width="35" height="35"/>
  <rect class="fil1" x="12259" y="9155" width="35" height="35"/>
  <line class="fil0 str0" x1="12277" y1="9172" x2="12277" y2= "9525" />
  <line class="fil0 str0" x1="12277" y1="9525" x2="12347" y2= "9313" />
  <line class="fil0 str0" x1="12277" y1="9525" x2="12171" y2= "9313" />
  <path class="fil1" d="M12205 10274l0 -37c-18,-3 -33,-7 -45,-13 -12,-6 -22,-16 -30,-29 -8,-13 -13,-30 -15,-49l37 -7c3,20 8,35 16,44 11,13 23,20 37,23l0 -119c-15,-3 -31,-9 -47,-18 -12,-7 -21,-16 -28,-27 -6,-12 -10,-25 -10,-40 0,-26 10,-48 28,-64 12,-11 31,-18 55,-20l0 -18 22 0 0 18c22,2 39,8 51,19 17,13 26,32 30,55l-39 6c-2,-15 -7,-26 -14,-34 -7,-8 -17,-13 -29,-15l0 107c19,5 31,8 37,11 11,5 21,11 28,19 7,7 13,16 17,26 4,10 6,21 6,33 0,26 -8,47 -25,65 -16,17 -37,26 -64,28l0 37 -22 0zm0 -326c-14,2 -25,8 -34,17 -8,10 -12,20 -12,34 0,12 4,23 11,32 7,8 19,16 36,20l0 -103zm22 258c14,-2 26,-8 36,-19 10,-11 14,-24 14,-40 0,-13 -4,-24 -10,-32 -7,-8 -20,-15 -40,-22l0 114zm135 25l0 -303 37 0 0 303 -37 0z"/>
  <polygon class="fil0 str0" points="11748,10372 12806,10372 12806,9525 11748,9525 "/>
  <line class="fil0 str0" x1="21096" y1="8819" x2="21096" y2= "9172" />
  <rect class="fil1" x="21079" y="9155" width="35" height="35"/>
  <line class="fil0 str0" x1="21096" y1="9172" x2="13899" y2= "9172" />
  <rect class="fil1" x="13882" y="9155" width="35" height="35"/>
  <rect class="fil1" x="13882" y="9155" width="35" height="35"/>
  <line class="fil0 str0" x1="13899" y1="9172" x2="13899" y2= "9525" />
  <line class="fil0 str0" x1="13899" y1="9525" x2="13970" y2= "9313" />
  <line class="fil0 str0" x1="13899" y1="9525" x2="13829" y2= "9313" />
  <polygon class="fil1" points="13867,10231 13910,10231 13910,10188 13867,10188 "/>
  <polygon class="fil0 str0" points="13511,10372 14323,10372 14323,9525 13511,9525 "/>
  <line class="fil0 str0" x1="21096" y1="8819" x2="21096" y2= "9172" />
  <rect class="fil1" x="21079" y="9155" width="35" height="35"/>
  <line class="fil0 str0" x1="21096" y1="9172" x2="15805" y2= "9172" />
  <rect class="fil1" x="15787" y="9155" width="35" height="35"/>
  <rect class="fil1" x="15787" y="9155" width="35" height="35"/>
  <line class="fil0 str0" x1="15805" y1="9172" x2="15805" y2= "9525" />
  <line class="fil0 str0" x1="15805" y1="9525" x2="15875" y2= "9313" />
  <line class="fil0 str0" x1="15805" y1="9525" x2="15699" y2= "9313" />
  <path class="fil1" d="M15623 10150l36 5c-4,25 -14,44 -31,59 -17,14 -37,22 -61,22 -30,0 -54,-10 -73,-30 -18,-19 -27,-48 -27,-84 0,-24 4,-44 12,-62 8,-18 20,-31 36,-40 16,-9 34,-13 53,-13 24,0 43,6 58,18 15,12 25,29 30,51l-36 6c-4,-15 -10,-26 -18,-34 -9,-7 -19,-11 -32,-11 -19,0 -34,7 -46,20 -12,13 -18,35 -18,64 0,30 6,51 17,64 11,13 26,20 44,20 15,0 27,-5 37,-13 10,-9 16,-23 19,-41zm218 10l38 4c-6,23 -17,40 -34,53 -17,12 -38,19 -63,19 -32,0 -58,-10 -77,-30 -19,-20 -28,-48 -28,-83 0,-37 10,-65 29,-86 19,-20 44,-31 74,-31 30,0 54,10 72,30 19,20 28,48 28,85 0,2 0,5 0,10l-164 0c1,24 8,43 20,55 12,13 28,19 46,19 13,0 25,-4 35,-11 10,-7 17,-18 23,-34zm-122 -60l122 0c-1,-19 -6,-33 -14,-42 -12,-14 -28,-22 -46,-22 -17,0 -32,6 -43,17 -12,12 -18,27 -19,47zm206 131l0 -303 37 0 0 303 -37 0zm94 0l0 -303 37 0 0 303 -37 0z"/>
  <polygon class="fil0 str0" points="15028,10372 16581,10372 16581,9525 15028,9525 "/>
  <line class="fil0 str0" x1="21096" y1="8819" x2="21096" y2= "9172" />
  <rect class="fil1" x="21079" y="9155" width="35" height="35"/>
  <line class="fil0 str0" x1="21096" y1="9172" x2="17674" y2= "9172" />
  <rect class="fil1" x="17657" y="9155" width="35" height="35"/>
  <rect class="fil1" x="17657" y="9155" width="35" height="35"/>
  <line class="fil0 str0" x1="17674" y1="9172" x2="17674" y2= "9525" />
  <line class="fil0 str0" x1="17674" y1="9525" x2="17745" y2= "9313" />
  <line class="fil0 str0" x1="17674" y1="9525" x2="17604" y2= "9313" />
  <polygon class="fil1" points="17642,10231 17685,10231 17685,10188 17642,10188 "/>
  <polygon class="fil0 str0" points="17286,10372 18098,10372 18098,9525 17286,9525 "/>
  <line class="fil0 str0" x1="21096" y1="8819" x2="21096" y2= "9172" />
  <rect class="fil1" x="21079" y="9155" width="35" height="35"/>
  <line class="fil0 str0" x1="21096" y1="9172" x2="19332" y2= "9172" />
  <rect class="fil1" x="19315" y="9155" width="35" height="35"/>
  <rect class="fil1" x="19315" y="9155" width="35" height="35"/>
  <line class="fil0 str0" x1="19332" y1="9172" x2="19332" y2= "9525" />
  <line class="fil0 str0" x1="19332" y1="9525" x2="19403" y2= "9313" />
  <line class="fil0 str0" x1="19332" y1="9525" x2="19226" y2= "9313" />
  <path class="fil1" d="M19219 10231l0 -219 34 0 0 33c8,-16 17,-26 24,-31 7,-5 15,-7 24,-7 12,0 25,4 38,12l-13 35c-9,-5 -18,-8 -27,-8 -8,0 -16,2 -22,7 -6,5 -11,12 -13,21 -5,13 -7,28 -7,43l0 115 -37 0zm223 -33l6 32c-11,2 -20,4 -28,4 -14,0 -24,-2 -31,-6 -7,-4 -13,-10 -16,-17 -3,-7 -5,-22 -5,-44l0 -126 -27 0 0 -29 27 0 0 -55 37 -22 0 77 37 0 0 29 -37 0 0 128c0,11 1,18 2,20 1,3 4,5 6,7 3,2 7,2 13,2 5,0 10,0 17,-1z"/>
  <polygon class="fil0 str0" points="18803,10372 19861,10372 19861,9525 18803,9525 "/>
  <line class="fil0 str0" x1="21096" y1="8819" x2="21096" y2= "9172" />
  <rect class="fil1" x="21079" y="9155" width="35" height="35"/>
  <rect class="fil1" x="21079" y="9155" width="35" height="35"/>
  <rect class="fil1" x="21079" y="9155" width="35" height="35"/>
  <rect class="fil1" x="21079" y="9155" width="35" height="35"/>
  <line class="fil0 str0" x1="21096" y1="9172" x2="21096" y2= "9525" />
  <line class="fil0 str0" x1="21096" y1="9525" x2="21167" y2= "9313" />
  <line class="fil0 str0" x1="21096" y1="9525" x2="20990" y2= "9313" />
  <path class="fil1" d="M21073 10052l-200 0 0 -35 200 0 0 35zm0 92l-200 0 0 -35 200 0 0 35zm247 -92l-200 0 0 -35 200 0 0 35zm0 92l-200 0 0 -35 200 0 0 35z"/>
  <polygon class="fil0 str0" points="20567,10372 21625,10372 21625,9525 20567,9525 "/>
  <line class="fil0 str0" x1="21096" y1="8819" x2="21096" y2= "9172" />
  <rect class="fil1" x="21079" y="9155" width="35" height="35"/>
  <line class="fil0 str0" x1="21096" y1="9172" x2="22860" y2= "9172" />
  <rect class="fil1" x="22842" y="9155" width="35" height="35"/>
  <rect class="fil1" x="22842" y="9155" width="35" height="35"/>
  <line class="fil0 str0" x1="22860" y1="9172" x2="22860" y2= "9525" />
  <line class="fil0 str0" x1="22860" y1="9525" x2="22931" y2= "9313" />
  <line class="fil0 str0" x1="22860" y1="9525" x2="22754" y2= "9313" />
  <path class="fil1" d="M22718 10274l0 -37c-18,-3 -33,-7 -45,-13 -12,-6 -22,-16 -30,-29 -8,-13 -13,-30 -15,-49l37 -7c3,20 8,35 16,44 11,13 23,20 37,23l0 -119c-15,-3 -31,-9 -47,-18 -12,-7 -21,-16 -28,-27 -6,-12 -10,-25 -10,-40 0,-26 10,-48 28,-64 12,-11 31,-18 55,-20l0 -18 22 0 0 18c22,2 39,8 51,19 17,13 26,32 30,55l-39 6c-2,-15 -7,-26 -14,-34 -7,-8 -17,-13 -29,-15l0 107c19,5 31,8 37,11 11,5 21,11 28,19 7,7 13,16 17,26 4,10 6,21 6,33 0,26 -8,47 -25,65 -16,17 -37,26 -63,28l0 37 -22 0zm0 -326c-14,2 -25,8 -34,17 -8,10 -12,20 -12,34 0,12 4,23 11,32 7,8 19,16 36,20l0 -103zm22 258c14,-2 26,-8 36,-19 10,-11 14,-24 14,-40 0,-13 -4,-24 -10,-32 -7,-8 -20,-15 -40,-22l0 114zm286 -46l38 4c-6,23 -17,40 -34,53 -17,12 -37,19 -63,19 -32,0 -57,-10 -76,-30 -19,-20 -29,-48 -29,-83 0,-37 10,-65 29,-86 19,-20 44,-31 74,-31 29,0 53,10 72,30 18,20 28,48 28,85 0,2 0,5 0,10l-164 0c1,24 8,43 20,55 12,13 28,19 46,19 14,0 25,-4 35,-11 10,-7 17,-18 23,-34zm-122 -60l122 0c-2,-19 -6,-33 -14,-42 -12,-14 -28,-22 -47,-22 -17,0 -32,6 -43,17 -12,12 -18,27 -19,47z"/>
  <polygon class="fil0 str0" points="22331,10372 23389,10372 23389,9525 22331,9525 "/>
  <line class="fil0 str0" x1="21096" y1="8819" x2="21096" y2= "9172" />
  <rect class="fil1" x="21079" y="9155" width="35" height="35"/>
  <line class="fil0 str0" x1="21096" y1="9172" x2="24483" y2= "9172" />
  <rect class="fil1" x="24465" y="9155" width="35" height="35"/>
  <rect class="fil1" x="24465" y="9155" width="35" height="35"/>
  <line class="fil0 str0" x1="24483" y1="9172" x2="24483" y2= "9525" />
  <line class="fil0 str0" x1="24483" y1="9525" x2="24553" y2= "9313" />
  <line class="fil0 str0" x1="24483" y1="9525" x2="24412" y2= "9313" />
  <polygon class="fil1" points="24451,10231 24493,10231 24493,10188 24451,10188 "/>
  <polygon class="fil0 str0" points="24095,10372 24906,10372 24906,9525 24095,9525 "/>
  <line class="fil0 str0" x1="21096" y1="8819" x2="21096" y2= "9172" />
  <rect class="fil1" x="21079" y="9155" width="35" height="35"/>
  <line class="fil0 str0" x1="21096" y1="9172" x2="26388" y2= "9172" />
  <rect class="fil1" x="26370" y="9155" width="35" height="35"/>
  <rect class="fil1" x="26370" y="9155" width="35" height="35"/>
  <line class="fil0 str0" x1="26388" y1="9172" x2="26388" y2= "9525" />
  <line class="fil0 str0" x1="26388" y1="9525" x2="26458" y2= "9313" />
  <line class="fil0 str0" x1="26388" y1="9525" x2="26282" y2= "9313" />
  <path class="fil1" d="M26207 10150l36 5c-4,25 -14,44 -31,59 -17,14 -37,22 -61,22 -30,0 -54,-10 -73,-30 -18,-19 -27,-48 -27,-84 0,-24 4,-44 12,-62 8,-18 20,-31 36,-40 16,-9 34,-13 53,-13 24,0 43,6 58,18 15,12 25,29 30,51l-36 6c-4,-15 -10,-26 -18,-34 -9,-7 -19,-11 -32,-11 -19,0 -34,7 -46,20 -12,13 -18,35 -18,64 0,30 6,51 17,64 11,13 26,20 44,20 15,0 27,-5 37,-13 10,-9 16,-23 19,-41zm218 10l38 4c-6,23 -17,40 -34,53 -17,12 -38,19 -63,19 -32,0 -57,-10 -77,-30 -19,-20 -28,-48 -28,-83 0,-37 10,-65 29,-86 19,-20 44,-31 74,-31 30,0 54,10 72,30 19,20 28,48 28,85 0,2 0,5 0,10l-164 0c1,24 8,43 20,55 12,13 28,19 46,19 13,0 25,-4 35,-11 10,-7 17,-18 23,-34zm-122 -60l122 0c-1,-19 -6,-33 -14,-42 -12,-14 -28,-22 -46,-22 -17,0 -32,6 -43,17 -12,12 -18,27 -19,47zm206 131l0 -303 37 0 0 303 -37 0zm94 0l0 -303 37 0 0 303 -37 0z"/>
  <polygon class="fil0 str0" points="25612,10372 27164,10372 27164,9525 25612,9525 "/>
  <line class="fil0 str0" x1="21096" y1="8819" x2="21096" y2= "9172" />
  <rect class="fil1" x="21079" y="9155" width="35" height="35"/>
  <line class="fil0 str0" x1="21096" y1="9172" x2="28258" y2= "9172" />
  <rect class="fil1" x="28240" y="9155" width="35" height="35"/>
  <rect class="fil1" x="28240" y="9155" width="35" height="35"/>
  <line class="fil0 str0" x1="28258" y1="9172" x2="28258" y2= "9525" />
  <line class="fil0 str0" x1="28258" y1="9525" x2="28328" y2= "9313" />
  <line class="fil0 str0" x1="28258" y1="9525" x2="28187" y2= "9313" />
  <polygon class="fil1" points="28226,10231 28268,10231 28268,10188 28226,10188 "/>
  <polygon class="fil0 str0" points="27870,10372 28681,10372 28681,9525 27870,9525 "/>
  <line class="fil0 str0" x1="21096" y1="8819" x2="21096" y2= "9172" />
  <rect class="fil1" x="21079" y="9155" width="35" height="35"/>
  <line class="fil0 str0" x1="21096" y1="9172" x2="29916" y2= "9172" />
  <rect class="fil1" x="29898" y="9155" width="35" height="35"/>
  <rect class="fil1" x="29898" y="9155" width="35" height="35"/>
  <line class="fil0 str0" x1="29916" y1="9172" x2="29916" y2= "9525" />
  <line class="fil0 str0" x1="29916" y1="9525" x2="29986" y2= "9313" />
  <line class="fil0 str0" x1="29916" y1="9525" x2="29810" y2= "9313" />
  <path class="fil1" d="M29802 10231l0 -219 34 0 0 33c8,-16 17,-26 24,-31 7,-5 15,-7 24,-7 12,0 25,4 38,12l-13 35c-9,-5 -18,-8 -27,-8 -8,0 -16,2 -22,7 -6,5 -11,12 -13,21 -5,13 -7,28 -7,43l0 115 -37 0zm223 -33l6 32c-11,2 -20,4 -28,4 -14,0 -24,-2 -31,-6 -7,-4 -13,-10 -16,-17 -3,-7 -5,-22 -5,-44l0 -126 -27 0 0 -29 27 0 0 -55 37 -22 0 77 37 0 0 29 -37 0 0 128c0,11 1,18 2,20 1,3 4,5 6,7 3,2 7,2 13,2 5,0 10,0 17,-1z"/>
  <polygon class="fil0 str0" points="29387,10372 30445,10372 30445,9525 29387,9525 "/>
  <path class="fil1" d="M20322 8572l40 11c-8,33 -24,58 -45,75 -22,17 -48,26 -80,26 -33,0 -59,-7 -80,-20 -21,-13 -36,-32 -47,-58 -11,-25 -16,-53 -16,-81 0,-32 6,-59 18,-83 12,-24 29,-42 52,-54 22,-12 47,-18 74,-18 30,0 55,7 76,23 21,16 35,37 43,65l-40 9c-7,-22 -17,-38 -31,-48 -13,-10 -30,-15 -50,-15 -23,0 -42,6 -58,17 -16,11 -27,26 -33,45 -6,19 -10,38 -10,59 0,26 4,48 11,67 7,19 19,33 35,43 16,10 33,14 52,14 22,0 41,-6 57,-19 16,-13 26,-32 32,-58zm71 -3c0,-41 11,-71 34,-90 19,-16 42,-24 69,-24 30,0 55,10 74,30 19,19 29,47 29,82 0,28 -4,50 -13,67 -9,16 -21,29 -37,38 -17,9 -34,13 -53,13 -31,0 -55,-10 -74,-30 -19,-19 -29,-48 -29,-85zm38 0c0,28 6,49 18,63 12,14 28,21 46,21 19,0 34,-7 46,-21 12,-14 18,-35 18,-64 0,-27 -6,-48 -19,-62 -12,-14 -28,-21 -46,-21 -18,0 -34,7 -46,20 -12,14 -18,35 -18,63zm211 110l0 -219 33 0 0 31c16,-24 40,-36 70,-36 13,0 25,2 37,7 11,5 19,11 25,19 5,7 9,17 12,27 1,7 1,19 1,36l0 135 -37 0 0 -133c0,-16 -1,-27 -5,-34 -3,-7 -8,-13 -16,-18 -7,-5 -16,-7 -26,-7 -16,0 -30,5 -41,15 -12,10 -18,29 -18,57l0 120 -37 0zm220 -66l36 -6c2,15 8,26 17,34 10,8 23,12 40,12 17,0 30,-4 38,-10 8,-7 12,-15 12,-25 0,-8 -4,-15 -11,-20 -5,-4 -18,-7 -38,-13 -27,-7 -46,-13 -57,-18 -10,-5 -18,-12 -24,-20 -5,-9 -8,-19 -8,-30 0,-10 2,-18 7,-27 4,-8 10,-16 18,-21 6,-4 14,-7 24,-10 10,-3 20,-5 32,-5 17,0 32,2 45,7 13,5 23,12 29,20 6,8 11,20 13,34l-36 5c-1,-11 -6,-20 -14,-26 -8,-6 -19,-10 -34,-10 -17,0 -29,3 -36,8 -7,6 -11,12 -11,20 0,5 1,9 4,13 3,4 8,7 14,10 4,1 14,5 33,10 26,7 45,13 55,18 10,4 18,11 24,19 6,8 9,19 9,32 0,13 -4,24 -11,35 -7,11 -18,19 -31,25 -14,6 -29,9 -47,9 -29,0 -50,-6 -65,-18 -15,-12 -24,-29 -28,-53zm308 32l5 32c-11,2 -20,4 -28,4 -14,0 -24,-2 -31,-6 -7,-4 -13,-10 -16,-17 -3,-7 -5,-22 -5,-44l0 -126 -27 0 0 -29 27 0 0 -55 37 -22 0 77 38 0 0 29 -38 0 0 128c0,11 1,18 2,20 1,3 4,5 6,7 3,2 7,2 13,2 4,0 10,0 17,-1zm36 33l0 -219 34 0 0 33c9,-16 16,-26 24,-31 7,-5 15,-7 24,-7 12,0 25,4 38,12l-13 35c-9,-5 -18,-8 -27,-8 -8,0 -16,2 -22,7 -7,5 -11,12 -14,21 -4,13 -6,28 -6,43l0 115 -37 0zm285 -27c-14,12 -27,20 -40,25 -13,5 -26,7 -41,7 -24,0 -43,-6 -56,-18 -13,-12 -19,-27 -19,-45 0,-11 2,-20 7,-30 5,-9 11,-16 19,-22 8,-5 17,-9 27,-12 7,-2 18,-4 33,-6 30,-4 52,-8 66,-13 0,-5 0,-8 0,-10 0,-16 -4,-26 -11,-32 -10,-8 -24,-12 -42,-12 -17,0 -30,3 -38,9 -8,6 -15,17 -19,32l-36 -5c4,-16 9,-28 17,-38 8,-10 19,-17 33,-22 14,-5 31,-8 50,-8 19,0 34,2 45,7 12,4 21,10 26,17 5,6 9,15 11,25 1,6 2,18 2,34l0 50c0,35 1,56 2,66 2,9 5,18 10,26l-39 0c-4,-8 -6,-17 -7,-27zm-3 -83c-14,5 -34,10 -61,14 -16,2 -26,5 -32,7 -6,3 -11,7 -15,12 -3,5 -5,11 -5,18 0,10 4,18 11,25 7,7 18,10 33,10 14,0 27,-3 38,-9 11,-6 19,-15 25,-26 4,-8 6,-21 6,-37l0 -14zm95 -150l0 -43 38 0 0 43 -38 0zm0 260l0 -219 38 0 0 219 -38 0zm94 0l0 -219 33 0 0 31c16,-24 40,-36 70,-36 13,0 25,2 37,7 11,5 20,11 25,19 6,7 10,17 12,27 1,7 2,19 2,36l0 135 -37 0 0 -133c0,-16 -1,-27 -4,-34 -3,-7 -8,-13 -16,-18 -7,-5 -16,-7 -26,-7 -16,0 -29,5 -41,15 -12,10 -17,29 -17,57l0 120 -37 0zm316 -33l6 32c-11,2 -20,4 -28,4 -13,0 -24,-2 -31,-6 -7,-4 -13,-10 -16,-17 -3,-7 -5,-22 -5,-44l0 -126 -27 0 0 -29 27 0 0 -55 37 -22 0 77 37 0 0 29 -37 0 0 128c0,11 1,18 2,20 1,3 4,5 6,7 3,2 7,2 13,2 5,0 10,0 17,-1z"/>
  <polygon class="fil0 str0" points="19579,8819 22613,8819 22613,7973 19579,7973 "/>
  <line class="fil0 str0" x1="30163" y1="7267" x2="30163" y2= "7620" />
  <rect class="fil1" x="30145" y="7602" width="35" height="35"/>
  <line class="fil0 str0" x1="30163" y1="7620" x2="42016" y2= "7620" />
  <rect class="fil1" x="41998" y="7602" width="35" height="35"/>
  <rect class="fil1" x="41998" y="7602" width="35" height="35"/>
  <line class="fil0 str0" x1="42016" y1="7620" x2="42016" y2= "7973" />
  <line class="fil0 str0" x1="42016" y1="7973" x2="42086" y2= "7761" />
  <line class="fil0 str0" x1="42016" y1="7973" x2="41910" y2= "7761" />
  <line class="fil0 str0" x1="42016" y1="8819" x2="42016" y2= "9172" />
  <rect class="fil1" x="41998" y="9155" width="35" height="35"/>
  <line class="fil0 str0" x1="42016" y1="9172" x2="31680" y2= "9172" />
  <rect class="fil1" x="31662" y="9155" width="35" height="35"/>
  <rect class="fil1" x="31662" y="9155" width="35" height="35"/>
  <line class="fil0 str0" x1="31680" y1="9172" x2="31680" y2= "9525" />
  <line class="fil0 str0" x1="31680" y1="9525" x2="31750" y2= "9313" />
  <line class="fil0 str0" x1="31680" y1="9525" x2="31574" y2= "9313" />
  <path class="fil1" d="M31608 10274l0 -37c-18,-3 -33,-7 -45,-13 -12,-6 -22,-16 -30,-29 -8,-13 -13,-30 -15,-49l37 -7c3,20 8,35 16,44 11,13 23,20 37,23l0 -119c-15,-3 -31,-9 -47,-18 -12,-7 -21,-16 -28,-27 -6,-12 -10,-25 -10,-40 0,-26 10,-48 28,-64 12,-11 31,-18 55,-20l0 -18 22 0 0 18c22,2 39,8 51,19 17,13 26,32 30,55l-39 6c-2,-15 -7,-26 -14,-34 -7,-8 -17,-13 -29,-15l0 107c19,5 31,8 37,11 11,5 21,11 28,19 7,7 13,16 17,26 4,10 6,21 6,33 0,26 -8,47 -25,65 -16,17 -37,26 -63,28l0 37 -22 0zm0 -326c-14,2 -25,8 -34,17 -8,10 -12,20 -12,34 0,12 4,23 11,32 7,8 19,16 36,20l0 -103zm22 258c14,-2 26,-8 36,-19 10,-11 15,-24 15,-40 0,-13 -4,-24 -10,-32 -7,-8 -20,-15 -40,-22l0 114zm135 25l0 -303 37 0 0 303 -37 0z"/>
  <polygon class="fil0 str0" points="31150,10372 32209,10372 32209,9525 31150,9525 "/>
  <line class="fil0 str0" x1="42016" y1="8819" x2="42016" y2= "9172" />
  <rect class="fil1" x="41998" y="9155" width="35" height="35"/>
  <line class="fil0 str0" x1="42016" y1="9172" x2="33302" y2= "9172" />
  <rect class="fil1" x="33285" y="9155" width="35" height="35"/>
  <rect class="fil1" x="33285" y="9155" width="35" height="35"/>
  <line class="fil0 str0" x1="33302" y1="9172" x2="33302" y2= "9525" />
  <line class="fil0 str0" x1="33302" y1="9525" x2="33373" y2= "9313" />
  <line class="fil0 str0" x1="33302" y1="9525" x2="33232" y2= "9313" />
  <polygon class="fil1" points="33270,10231 33313,10231 33313,10188 33270,10188 "/>
  <polygon class="fil0 str0" points="32914,10372 33726,10372 33726,9525 32914,9525 "/>
  <line class="fil0 str0" x1="42016" y1="8819" x2="42016" y2= "9172" />
  <rect class="fil1" x="41998" y="9155" width="35" height="35"/>
  <line class="fil0 str0" x1="42016" y1="9172" x2="35207" y2= "9172" />
  <rect class="fil1" x="35190" y="9155" width="35" height="35"/>
  <rect class="fil1" x="35190" y="9155" width="35" height="35"/>
  <line class="fil0 str0" x1="35207" y1="9172" x2="35207" y2= "9525" />
  <line class="fil0 str0" x1="35207" y1="9525" x2="35278" y2= "9313" />
  <line class="fil0 str0" x1="35207" y1="9525" x2="35102" y2= "9313" />
  <path class="fil1" d="M35026 10150l36 5c-4,25 -14,44 -31,59 -17,14 -37,22 -61,22 -30,0 -54,-10 -73,-30 -18,-19 -27,-48 -27,-84 0,-24 4,-44 12,-62 8,-18 20,-31 36,-40 16,-9 34,-13 53,-13 24,0 43,6 58,18 15,12 25,29 30,51l-36 6c-4,-15 -10,-26 -18,-34 -9,-7 -19,-11 -32,-11 -19,0 -34,7 -45,20 -12,13 -18,35 -18,64 0,30 6,51 17,64 11,13 26,20 44,20 15,0 27,-5 37,-13 10,-9 16,-23 19,-41zm218 10l38 4c-6,23 -17,40 -34,53 -17,12 -38,19 -63,19 -32,0 -57,-10 -77,-30 -19,-20 -28,-48 -28,-83 0,-37 10,-65 29,-86 19,-20 44,-31 74,-31 30,0 54,10 72,30 19,20 28,48 28,85 0,2 0,5 0,10l-164 0c1,24 8,43 20,55 12,13 28,19 46,19 13,0 25,-4 35,-11 10,-7 17,-18 23,-34zm-122 -60l122 0c-1,-19 -6,-33 -14,-42 -12,-14 -28,-22 -46,-22 -17,0 -32,6 -43,17 -12,12 -18,27 -19,47zm206 131l0 -303 37 0 0 303 -37 0zm94 0l0 -303 37 0 0 303 -37 0z"/>
  <polygon class="fil0 str0" points="34431,10372 35983,10372 35983,9525 34431,9525 "/>
  <line class="fil0 str0" x1="42016" y1="8819" x2="42016" y2= "9172" />
  <rect class="fil1" x="41998" y="9155" width="35" height="35"/>
  <line class="fil0 str0" x1="42016" y1="9172" x2="37077" y2= "9172" />
  <rect class="fil1" x="37059" y="9155" width="35" height="35"/>
  <rect class="fil1" x="37059" y="9155" width="35" height="35"/>
  <line class="fil0 str0" x1="37077" y1="9172" x2="37077" y2= "9525" />
  <line class="fil0 str0" x1="37077" y1="9525" x2="37148" y2= "9313" />
  <line class="fil0 str0" x1="37077" y1="9525" x2="37007" y2= "9313" />
  <polygon class="fil1" points="37045,10231 37088,10231 37088,10188 37045,10188 "/>
  <polygon class="fil0 str0" points="36689,10372 37500,10372 37500,9525 36689,9525 "/>
  <line class="fil0 str0" x1="42016" y1="8819" x2="42016" y2= "9172" />
  <rect class="fil1" x="41998" y="9155" width="35" height="35"/>
  <line class="fil0 str0" x1="42016" y1="9172" x2="38735" y2= "9172" />
  <rect class="fil1" x="38718" y="9155" width="35" height="35"/>
  <rect class="fil1" x="38718" y="9155" width="35" height="35"/>
  <line class="fil0 str0" x1="38735" y1="9172" x2="38735" y2= "9525" />
  <line class="fil0 str0" x1="38735" y1="9525" x2="38806" y2= "9313" />
  <line class="fil0 str0" x1="38735" y1="9525" x2="38629" y2= "9313" />
  <path class="fil1" d="M38730 10150l36 5c-4,25 -14,44 -31,59 -17,14 -37,22 -61,22 -30,0 -54,-10 -73,-30 -18,-19 -27,-48 -27,-84 0,-24 4,-44 12,-62 8,-18 20,-31 36,-40 16,-9 34,-13 53,-13 24,0 43,6 58,18 15,12 25,29 30,51l-36 6c-4,-15 -10,-26 -18,-34 -9,-7 -19,-11 -32,-11 -19,0 -34,7 -46,20 -12,13 -18,35 -18,64 0,30 6,51 17,64 11,13 26,20 44,20 15,0 27,-5 37,-13 10,-9 16,-23 19,-41zm67 80l0 -303 37 0 0 303 -37 0z"/>
  <polygon class="fil0 str0" points="38206,10372 39264,10372 39264,9525 38206,9525 "/>
  <line class="fil0 str0" x1="42016" y1="8819" x2="42016" y2= "9172" />
  <rect class="fil1" x="41998" y="9155" width="35" height="35"/>
  <line class="fil0 str0" x1="42016" y1="9172" x2="40499" y2= "9172" />
  <rect class="fil1" x="40481" y="9155" width="35" height="35"/>
  <rect class="fil1" x="40481" y="9155" width="35" height="35"/>
  <line class="fil0 str0" x1="40499" y1="9172" x2="40499" y2= "9525" />
  <line class="fil0 str0" x1="40499" y1="9525" x2="40569" y2= "9313" />
  <line class="fil0 str0" x1="40499" y1="9525" x2="40393" y2= "9313" />
  <path class="fil1" d="M40476 10052l-200 0 0 -35 200 0 0 35zm0 92l-200 0 0 -35 200 0 0 35zm247 -92l-200 0 0 -35 200 0 0 35zm0 92l-200 0 0 -35 200 0 0 35z"/>
  <polygon class="fil0 str0" points="39970,10372 41028,10372 41028,9525 39970,9525 "/>
  <line class="fil0 str0" x1="42016" y1="8819" x2="42016" y2= "9172" />
  <rect class="fil1" x="41998" y="9155" width="35" height="35"/>
  <line class="fil0 str0" x1="42016" y1="9172" x2="42263" y2= "9172" />
  <rect class="fil1" x="42245" y="9155" width="35" height="35"/>
  <rect class="fil1" x="42245" y="9155" width="35" height="35"/>
  <line class="fil0 str0" x1="42263" y1="9172" x2="42263" y2= "9525" />
  <line class="fil0 str0" x1="42263" y1="9525" x2="42334" y2= "9313" />
  <line class="fil0 str0" x1="42263" y1="9525" x2="42157" y2= "9313" />
  <path class="fil1" d="M42121 10274l0 -37c-18,-3 -33,-7 -45,-13 -12,-6 -22,-16 -30,-29 -8,-13 -13,-30 -15,-49l37 -7c3,20 8,35 15,44 11,13 23,20 37,23l0 -119c-15,-3 -31,-9 -46,-18 -12,-7 -21,-16 -28,-27 -6,-12 -9,-25 -9,-40 0,-26 9,-48 28,-64 12,-11 31,-18 55,-20l0 -18 22 0 0 18c22,2 39,8 51,19 17,13 27,32 30,55l-39 6c-2,-15 -7,-26 -14,-34 -7,-8 -17,-13 -29,-15l0 107c19,5 31,8 37,11 11,5 21,11 28,19 8,7 13,16 17,26 4,10 6,21 6,33 0,26 -8,47 -25,65 -16,17 -37,26 -64,28l0 37 -22 0zm0 -326c-14,2 -25,8 -34,17 -8,10 -12,20 -12,34 0,12 3,23 10,32 7,8 19,16 35,20l0 -103zm22 258c15,-2 26,-8 36,-19 10,-11 15,-24 15,-40 0,-13 -4,-24 -10,-32 -6,-8 -20,-15 -40,-22l0 114zm286 -46l38 4c-6,23 -17,40 -33,53 -17,12 -37,19 -63,19 -32,0 -58,-10 -76,-30 -19,-20 -29,-48 -29,-83 0,-37 10,-65 29,-86 19,-20 44,-31 74,-31 29,0 53,10 72,30 18,20 28,48 28,85 0,2 0,5 0,10l-164 0c2,24 8,43 20,55 12,13 28,19 46,19 14,0 25,-4 35,-11 10,-7 17,-18 23,-34zm-122 -60l122 0c-2,-19 -6,-33 -14,-42 -12,-14 -28,-22 -46,-22 -17,0 -32,6 -43,17 -12,12 -18,27 -19,47z"/>
  <polygon class="fil0 str0" points="41734,10372 42792,10372 42792,9525 41734,9525 "/>
  <line class="fil0 str0" x1="42016" y1="8819" x2="42016" y2= "9172" />
  <rect class="fil1" x="41998" y="9155" width="35" height="35"/>
  <line class="fil0 str0" x1="42016" y1="9172" x2="43886" y2= "9172" />
  <rect class="fil1" x="43868" y="9155" width="35" height="35"/>
  <rect class="fil1" x="43868" y="9155" width="35" height="35"/>
  <line class="fil0 str0" x1="43886" y1="9172" x2="43886" y2= "9525" />
  <line class="fil0 str0" x1="43886" y1="9525" x2="43956" y2= "9313" />
  <line class="fil0 str0" x1="43886" y1="9525" x2="43815" y2= "9313" />
  <polygon class="fil1" points="43853,10231 43896,10231 43896,10188 43853,10188 "/>
  <polygon class="fil0 str0" points="43498,10372 44309,10372 44309,9525 43498,9525 "/>
  <line class="fil0 str0" x1="42016" y1="8819" x2="42016" y2= "9172" />
  <rect class="fil1" x="41998" y="9155" width="35" height="35"/>
  <line class="fil0 str0" x1="42016" y1="9172" x2="45791" y2= "9172" />
  <rect class="fil1" x="45773" y="9155" width="35" height="35"/>
  <rect class="fil1" x="45773" y="9155" width="35" height="35"/>
  <line class="fil0 str0" x1="45791" y1="9172" x2="45791" y2= "9525" />
  <line class="fil0 str0" x1="45791" y1="9525" x2="45861" y2= "9313" />
  <line class="fil0 str0" x1="45791" y1="9525" x2="45685" y2= "9313" />
  <path class="fil1" d="M45609 10150l37 5c-4,25 -15,44 -31,59 -17,14 -37,22 -60,22 -31,0 -54,-10 -73,-30 -18,-19 -27,-48 -27,-84 0,-24 4,-44 12,-62 8,-18 20,-31 36,-40 16,-9 33,-13 53,-13 23,0 43,6 58,18 15,12 25,29 30,51l-36 6c-4,-15 -10,-26 -19,-34 -9,-7 -19,-11 -32,-11 -19,0 -34,7 -46,20 -12,13 -18,35 -18,64 0,30 6,51 17,64 11,13 26,20 44,20 15,0 27,-5 37,-13 10,-9 16,-23 19,-41zm219 10l38 4c-6,23 -17,40 -33,53 -17,12 -38,19 -63,19 -32,0 -58,-10 -77,-30 -19,-20 -28,-48 -28,-83 0,-37 9,-65 29,-86 19,-20 44,-31 74,-31 29,0 54,10 72,30 19,20 28,48 28,85 0,2 0,5 0,10l-164 0c2,24 8,43 21,55 12,13 27,19 46,19 13,0 25,-4 35,-11 9,-7 17,-18 23,-34zm-122 -60l122 0c-1,-19 -6,-33 -14,-42 -12,-14 -27,-22 -46,-22 -17,0 -32,6 -44,17 -12,12 -18,27 -19,47zm207 131l0 -303 37 0 0 303 -37 0zm94 0l0 -303 37 0 0 303 -37 0z"/>
  <polygon class="fil0 str0" points="45015,10372 46567,10372 46567,9525 45015,9525 "/>
  <line class="fil0 str0" x1="42016" y1="8819" x2="42016" y2= "9172" />
  <rect class="fil1" x="41998" y="9155" width="35" height="35"/>
  <line class="fil0 str0" x1="42016" y1="9172" x2="47660" y2= "9172" />
  <rect class="fil1" x="47643" y="9155" width="35" height="35"/>
  <rect class="fil1" x="47643" y="9155" width="35" height="35"/>
  <line class="fil0 str0" x1="47660" y1="9172" x2="47660" y2= "9525" />
  <line class="fil0 str0" x1="47660" y1="9525" x2="47731" y2= "9313" />
  <line class="fil0 str0" x1="47660" y1="9525" x2="47590" y2= "9313" />
  <polygon class="fil1" points="47628,10231 47671,10231 47671,10188 47628,10188 "/>
  <polygon class="fil0 str0" points="47272,10372 48084,10372 48084,9525 47272,9525 "/>
  <line class="fil0 str0" x1="42016" y1="8819" x2="42016" y2= "9172" />
  <rect class="fil1" x="41998" y="9155" width="35" height="35"/>
  <line class="fil0 str0" x1="42016" y1="9172" x2="49319" y2= "9172" />
  <rect class="fil1" x="49301" y="9155" width="35" height="35"/>
  <rect class="fil1" x="49301" y="9155" width="35" height="35"/>
  <line class="fil0 str0" x1="49319" y1="9172" x2="49319" y2= "9525" />
  <line class="fil0 str0" x1="49319" y1="9525" x2="49389" y2= "9313" />
  <line class="fil0 str0" x1="49319" y1="9525" x2="49213" y2= "9313" />
  <path class="fil1" d="M49314 10150l36 5c-4,25 -15,44 -31,59 -17,14 -37,22 -61,22 -30,0 -54,-10 -73,-30 -18,-19 -27,-48 -27,-84 0,-24 4,-44 12,-62 8,-18 20,-31 36,-40 16,-9 33,-13 53,-13 23,0 43,6 58,18 15,12 25,29 30,51l-36 6c-4,-15 -10,-26 -19,-34 -9,-7 -19,-11 -32,-11 -19,0 -34,7 -46,20 -12,13 -17,35 -17,64 0,30 6,51 17,64 11,13 26,20 44,20 15,0 27,-5 37,-13 10,-9 17,-23 19,-41zm67 80l0 -303 37 0 0 303 -37 0z"/>
  <polygon class="fil0 str0" points="48789,10372 49848,10372 49848,9525 48789,9525 "/>
  <line class="fil0 str0" x1="42016" y1="8819" x2="42016" y2= "9172" />
  <rect class="fil1" x="41998" y="9155" width="35" height="35"/>
  <line class="fil0 str0" x1="42016" y1="9172" x2="50941" y2= "9172" />
  <rect class="fil1" x="50924" y="9155" width="35" height="35"/>
  <rect class="fil1" x="50924" y="9155" width="35" height="35"/>
  <line class="fil0 str0" x1="50941" y1="9172" x2="50941" y2= "9525" />
  <line class="fil0 str0" x1="50941" y1="9525" x2="51012" y2= "9313" />
  <line class="fil0 str0" x1="50941" y1="9525" x2="50871" y2= "9313" />
  <polygon class="fil1" points="50884,10140 50999,10140 50999,10102 50884,10102 "/>
  <polygon class="fil0 str0" points="50553,10372 51365,10372 51365,9525 50553,9525 "/>
  <line class="fil0 str0" x1="42016" y1="8819" x2="42016" y2= "9172" />
  <rect class="fil1" x="41998" y="9155" width="35" height="35"/>
  <line class="fil0 str0" x1="42016" y1="9172" x2="52458" y2= "9172" />
  <rect class="fil1" x="52441" y="9155" width="35" height="35"/>
  <rect class="fil1" x="52441" y="9155" width="35" height="35"/>
  <line class="fil0 str0" x1="52458" y1="9172" x2="52458" y2= "9525" />
  <line class="fil0 str0" x1="52458" y1="9525" x2="52529" y2= "9313" />
  <line class="fil0 str0" x1="52458" y1="9525" x2="52388" y2= "9313" />
  <path class="fil1" d="M52475 10231l-37 0 0 -237c-9,8 -21,17 -36,26 -15,8 -27,15 -39,19l0 -36c21,-10 39,-22 54,-36 15,-14 27,-27 33,-40l24 0 0 304z"/>
  <polygon class="fil0 str0" points="52070,10372 52882,10372 52882,9525 52070,9525 "/>
  <path class="fil1" d="M41242 8572l40 11c-8,33 -24,58 -45,75 -22,17 -48,26 -80,26 -33,0 -59,-7 -80,-20 -21,-13 -36,-32 -47,-58 -11,-25 -16,-53 -16,-81 0,-32 6,-59 19,-83 12,-24 29,-42 51,-54 23,-12 47,-18 74,-18 30,0 55,7 76,23 21,16 35,37 43,65l-40 9c-7,-22 -17,-38 -31,-48 -13,-10 -30,-15 -50,-15 -23,0 -42,6 -58,17 -16,11 -27,26 -33,45 -6,19 -10,38 -10,59 0,26 4,48 11,67 8,19 19,33 35,43 16,10 33,14 52,14 22,0 41,-6 57,-19 16,-13 27,-32 32,-58zm71 -3c0,-41 11,-71 34,-90 19,-16 41,-24 69,-24 30,0 54,10 74,30 19,19 29,47 29,82 0,28 -4,50 -12,67 -8,16 -21,29 -37,38 -17,9 -34,13 -53,13 -31,0 -56,-10 -74,-30 -19,-19 -29,-48 -29,-85zm38 0c0,28 6,49 19,63 12,14 28,21 46,21 19,0 34,-7 46,-21 12,-14 19,-35 19,-64 0,-27 -6,-48 -19,-62 -12,-14 -27,-21 -46,-21 -19,0 -34,7 -46,20 -12,14 -19,35 -19,63zm211 110l0 -219 33 0 0 31c17,-24 40,-36 70,-36 13,0 25,2 37,7 11,5 19,11 25,19 5,7 9,17 12,27 1,7 1,19 1,36l0 135 -37 0 0 -133c0,-16 -1,-27 -4,-34 -3,-7 -8,-13 -16,-18 -7,-5 -16,-7 -26,-7 -16,0 -29,5 -41,15 -12,10 -18,29 -18,57l0 120 -37 0zm220 -66l37 -6c2,15 8,26 17,34 10,8 23,12 40,12 17,0 30,-4 38,-10 8,-7 12,-15 12,-25 0,-8 -4,-15 -11,-20 -5,-4 -18,-7 -38,-13 -27,-7 -46,-13 -57,-18 -10,-5 -19,-12 -24,-20 -5,-9 -8,-19 -8,-30 0,-10 2,-18 7,-27 4,-8 10,-16 18,-21 6,-4 14,-7 24,-10 10,-3 21,-5 33,-5 17,0 32,2 45,7 13,5 23,12 29,20 6,8 10,20 12,34l-36 5c-1,-11 -6,-20 -14,-26 -8,-6 -19,-10 -34,-10 -17,0 -29,3 -36,8 -8,6 -11,12 -11,20 0,5 1,9 4,13 3,4 8,7 15,10 4,1 15,5 33,10 27,7 46,13 56,18 10,4 18,11 24,19 6,8 8,19 8,32 0,13 -3,24 -10,35 -7,11 -18,19 -31,25 -14,6 -29,9 -47,9 -28,0 -50,-6 -65,-18 -15,-12 -24,-29 -28,-53zm308 32l5 32c-10,2 -20,4 -28,4 -14,0 -24,-2 -31,-6 -7,-4 -12,-10 -16,-17 -3,-7 -5,-22 -5,-44l0 -126 -27 0 0 -29 27 0 0 -55 37 -22 0 77 38 0 0 29 -38 0 0 128c0,11 1,18 2,20 1,3 3,5 6,7 3,2 7,2 13,2 4,0 10,0 17,-1zm36 33l0 -219 34 0 0 33c8,-16 16,-26 23,-31 7,-5 15,-7 24,-7 12,0 25,4 38,12l-13 35c-9,-5 -18,-8 -27,-8 -8,0 -16,2 -22,7 -6,5 -11,12 -14,21 -4,13 -6,28 -6,43l0 115 -37 0zm285 -27c-14,12 -27,20 -40,25 -12,5 -26,7 -41,7 -25,0 -43,-6 -56,-18 -13,-12 -19,-27 -19,-45 0,-11 2,-20 7,-30 5,-9 11,-16 19,-22 8,-5 17,-9 27,-12 7,-2 18,-4 33,-6 30,-4 52,-8 66,-13 0,-5 0,-8 0,-10 0,-16 -3,-26 -10,-32 -10,-8 -24,-12 -42,-12 -17,0 -30,3 -39,9 -8,6 -15,17 -19,32l-36 -5c4,-16 9,-28 17,-38 8,-10 19,-17 33,-22 15,-5 31,-8 50,-8 19,0 34,2 46,7 12,4 21,10 26,17 5,6 9,15 11,25 1,6 2,18 2,34l0 50c0,35 1,56 2,66 2,9 5,18 10,26l-39 0c-4,-8 -6,-17 -8,-27zm-3 -83c-14,5 -34,10 -60,14 -16,2 -26,5 -33,7 -6,3 -11,7 -15,12 -3,5 -5,11 -5,18 0,10 4,18 11,25 7,7 19,10 33,10 14,0 27,-3 38,-9 11,-6 19,-15 25,-26 4,-8 6,-21 6,-37l0 -14zm95 -150l0 -43 37 0 0 43 -37 0zm0 260l0 -219 37 0 0 219 -37 0zm94 0l0 -219 33 0 0 31c16,-24 39,-36 70,-36 14,0 25,2 37,7 11,5 20,11 25,19 6,7 9,17 12,27 1,7 2,19 2,36l0 135 -37 0 0 -133c0,-16 -2,-27 -4,-34 -3,-7 -8,-13 -15,-18 -7,-5 -16,-7 -26,-7 -15,0 -29,5 -41,15 -12,10 -17,29 -17,57l0 120 -37 0zm316 -33l6 32c-10,2 -20,4 -28,4 -13,0 -24,-2 -31,-6 -7,-4 -12,-10 -16,-17 -3,-7 -5,-22 -5,-44l0 -126 -27 0 0 -29 27 0 0 -55 37 -22 0 77 37 0 0 29 -37 0 0 128c0,11 1,18 2,20 1,3 4,5 6,7 3,2 7,2 12,2 4,0 10,0 17,-1z"/>
  <polygon class="fil0 str0" points="40499,8819 43533,8819 43533,7973 40499,7973 "/>
  <path class="fil1" d="M29459 7020l40 11c-8,33 -24,58 -45,75 -22,17 -48,26 -80,26 -33,0 -59,-7 -80,-20 -21,-13 -36,-32 -47,-58 -11,-25 -16,-53 -16,-82 0,-32 6,-59 18,-83 12,-24 29,-42 51,-54 22,-12 47,-18 74,-18 30,0 55,7 76,23 21,16 35,37 43,65l-40 9c-7,-22 -17,-38 -31,-48 -13,-10 -30,-15 -50,-15 -23,0 -42,6 -58,17 -16,11 -27,26 -33,45 -6,19 -10,38 -10,59 0,26 4,48 11,67 7,19 19,33 35,43 16,10 33,14 52,14 22,0 41,-6 57,-19 16,-13 26,-32 32,-58zm71 -3c0,-41 11,-71 34,-90 19,-16 42,-24 69,-24 30,0 55,10 74,30 19,19 29,47 29,82 0,28 -4,50 -13,67 -8,16 -21,29 -37,38 -17,9 -34,13 -53,13 -31,0 -55,-10 -74,-30 -19,-19 -29,-48 -29,-85zm38 0c0,28 6,49 18,63 12,14 28,21 46,21 19,0 34,-7 46,-21 12,-14 18,-35 18,-64 0,-27 -6,-48 -19,-62 -12,-14 -28,-21 -46,-21 -18,0 -34,7 -46,20 -12,14 -18,35 -18,63zm211 110l0 -219 33 0 0 31c16,-24 40,-36 70,-36 13,0 25,2 37,7 11,5 19,11 25,19 5,7 9,17 12,27 1,7 1,19 1,36l0 135 -37 0 0 -133c0,-16 -1,-27 -5,-34 -3,-7 -8,-13 -16,-18 -7,-5 -16,-7 -26,-7 -16,0 -30,5 -41,15 -12,10 -18,29 -18,57l0 120 -37 0zm377 0l0 -28c-14,22 -34,32 -61,32 -18,0 -34,-5 -49,-14 -14,-10 -26,-23 -34,-41 -8,-17 -12,-37 -12,-60 0,-22 4,-42 11,-60 7,-18 18,-32 33,-41 15,-10 31,-14 49,-14 13,0 25,3 35,8 10,5 19,12 25,21l0 -108 37 0 0 303 -35 0zm-117 -110c0,28 6,49 18,63 12,14 26,21 42,21 16,0 30,-7 41,-20 12,-13 17,-33 17,-61 0,-30 -6,-52 -17,-66 -12,-14 -26,-21 -43,-21 -16,0 -30,7 -41,20 -11,13 -17,35 -17,64zm211 -151l0 -43 38 0 0 43 -38 0zm0 260l0 -219 38 0 0 219 -38 0zm175 -33l5 32c-11,2 -20,4 -28,4 -14,0 -24,-2 -31,-6 -7,-4 -13,-10 -16,-17 -3,-7 -5,-22 -5,-44l0 -126 -27 0 0 -29 27 0 0 -55 37 -22 0 77 38 0 0 29 -38 0 0 128c0,11 1,18 2,20 1,3 4,5 6,7 3,2 7,2 13,2 4,0 10,0 17,-1zm36 -227l0 -43 38 0 0 43 -38 0zm0 260l0 -219 38 0 0 219 -38 0zm80 -110c0,-41 11,-71 34,-90 19,-16 42,-24 69,-24 30,0 55,10 74,30 19,19 29,47 29,82 0,28 -4,50 -13,67 -8,16 -21,29 -37,38 -16,9 -34,13 -53,13 -31,0 -55,-10 -74,-30 -19,-19 -28,-48 -28,-85zm38 0c0,28 6,49 18,63 12,14 28,21 46,21 19,0 34,-7 46,-21 12,-14 18,-35 18,-64 0,-27 -6,-48 -18,-62 -12,-14 -28,-21 -46,-21 -18,0 -34,7 -46,20 -12,14 -18,35 -18,63zm211 110l0 -219 33 0 0 31c16,-24 40,-36 70,-36 13,0 25,2 37,7 11,5 19,11 25,19 5,7 9,17 11,27 1,7 2,19 2,36l0 135 -37 0 0 -133c0,-16 -1,-27 -4,-34 -3,-7 -8,-13 -16,-18 -7,-5 -16,-7 -26,-7 -16,0 -30,5 -41,15 -11,10 -17,29 -17,57l0 120 -37 0z"/>
  <polygon class="fil0 str0" points="28787,7267 31574,7267 31574,6421 28787,6421 "/>
  <path class="fil1" d="M27237 5467l40 11c-8,33 -24,58 -45,75 -22,17 -48,26 -80,26 -33,0 -59,-7 -80,-20 -21,-13 -36,-32 -47,-58 -11,-25 -16,-53 -16,-81 0,-32 6,-59 18,-83 12,-24 29,-42 52,-54 22,-12 47,-18 74,-18 30,0 55,7 76,23 21,16 35,37 43,65l-40 9c-7,-22 -17,-38 -31,-48 -13,-10 -30,-15 -50,-15 -23,0 -42,6 -58,17 -16,11 -27,26 -33,45 -6,19 -10,38 -10,59 0,26 4,48 11,67 7,19 19,33 35,43 16,10 33,14 52,14 22,0 41,-6 57,-19 16,-13 26,-32 32,-58zm71 -3c0,-41 11,-71 34,-90 19,-16 42,-24 69,-24 30,0 55,10 74,30 19,19 29,47 29,82 0,28 -4,50 -13,67 -9,16 -21,29 -37,38 -17,9 -34,13 -53,13 -31,0 -55,-10 -74,-30 -19,-19 -29,-48 -29,-85zm38 0c0,28 6,49 18,63 12,14 28,21 46,21 19,0 34,-7 46,-21 12,-14 18,-35 18,-64 0,-27 -6,-48 -19,-62 -12,-14 -28,-21 -46,-21 -18,0 -34,7 -46,20 -12,14 -18,35 -18,63zm211 110l0 -219 33 0 0 31c16,-24 40,-36 70,-36 13,0 25,2 37,7 11,5 19,11 25,19 5,7 9,17 12,27 1,7 1,19 1,36l0 135 -37 0 0 -133c0,-16 -1,-27 -5,-34 -3,-7 -8,-13 -16,-18 -7,-5 -16,-7 -26,-7 -16,0 -30,5 -41,15 -12,10 -18,29 -18,57l0 120 -37 0zm377 0l0 -28c-14,22 -34,32 -61,32 -18,0 -34,-5 -49,-14 -14,-10 -26,-23 -34,-41 -8,-17 -12,-37 -12,-60 0,-22 4,-42 11,-60 7,-18 18,-32 33,-41 15,-10 31,-14 49,-14 13,0 25,3 35,8 10,5 19,12 25,21l0 -108 37 0 0 303 -35 0zm-117 -110c0,28 6,49 18,63 12,14 26,21 42,21 16,0 30,-7 41,-20 12,-13 17,-33 17,-61 0,-30 -6,-52 -17,-66 -12,-14 -26,-21 -43,-21 -16,0 -30,7 -41,20 -11,13 -17,35 -17,64zm211 -151l0 -43 38 0 0 43 -38 0zm0 260l0 -219 38 0 0 219 -38 0zm175 -33l5 32c-11,2 -20,4 -28,4 -14,0 -24,-2 -31,-6 -7,-4 -13,-10 -16,-17 -3,-7 -5,-22 -5,-44l0 -126 -27 0 0 -29 27 0 0 -55 37 -22 0 77 38 0 0 29 -38 0 0 128c0,11 1,18 2,20 1,3 4,5 6,7 3,2 7,2 13,2 4,0 10,0 17,-1zm36 -227l0 -43 38 0 0 43 -38 0zm0 260l0 -219 38 0 0 219 -38 0zm80 -110c0,-41 11,-71 34,-90 19,-16 42,-24 69,-24 30,0 55,10 74,30 19,19 29,47 29,82 0,28 -4,50 -13,67 -8,16 -21,29 -37,38 -16,9 -34,13 -53,13 -31,0 -55,-10 -74,-30 -19,-19 -28,-48 -28,-85zm38 0c0,28 6,49 18,63 12,14 28,21 46,21 19,0 34,-7 46,-21 12,-14 18,-35 18,-64 0,-27 -6,-48 -18,-62 -12,-14 -28,-21 -46,-21 -18,0 -34,7 -46,20 -12,14 -18,35 -18,63zm211 110l0 -219 33 0 0 31c16,-24 40,-36 70,-36 13,0 25,2 37,7 11,5 19,11 25,19 5,7 9,17 11,27 1,7 2,19 2,36l0 135 -37 0 0 -133c0,-16 -1,-27 -4,-34 -3,-7 -8,-13 -16,-18 -7,-5 -16,-7 -26,-7 -16,0 -30,5 -41,15 -11,10 -17,29 -17,57l0 120 -37 0zm221 -66l36 -6c2,15 8,26 17,34 10,8 23,12 40,12 17,0 30,-4 38,-10 8,-7 12,-15 12,-25 0,-8 -4,-15 -11,-20 -5,-4 -18,-7 -38,-13 -27,-7 -46,-13 -56,-18 -10,-5 -18,-12 -24,-20 -5,-9 -8,-19 -8,-30 0,-10 2,-18 7,-27 4,-9 10,-16 18,-21 6,-4 14,-7 24,-10 10,-3 21,-5 32,-5 17,0 32,2 45,7 13,5 23,12 29,20 6,9 11,20 13,34l-36 5c-1,-11 -6,-20 -14,-26 -8,-6 -19,-10 -34,-10 -17,0 -29,3 -36,9 -7,6 -11,12 -11,20 0,5 2,9 5,13 3,4 8,7 14,10 4,1 15,5 33,10 26,7 45,13 55,18 11,4 19,11 24,19 6,8 9,19 9,32 0,13 -4,24 -11,35 -7,11 -18,19 -31,25 -13,6 -29,9 -46,9 -29,0 -50,-6 -65,-18 -15,-12 -24,-29 -28,-53z"/>
  <polygon class="fil0 str0" points="26529,5715 29563,5715 29563,4868 26529,4868 "/>
  <line class="fil0 str0" x1="31009" y1="4163" x2="31009" y2= "4516" />
  <rect class="fil1" x="30992" y="4498" width="35" height="35"/>
  <line class="fil0 str0" x1="31009" y1="4516" x2="56233" y2= "4516" />
  <rect class="fil1" x="56215" y="4498" width="35" height="35"/>
  <rect class="fil1" x="56215" y="4498" width="35" height="35"/>
  <line class="fil0 str0" x1="56233" y1="4516" x2="56233" y2= "4868" />
  <line class="fil0 str0" x1="56233" y1="4868" x2="56304" y2= "4657" />
  <line class="fil0 str0" x1="56233" y1="4868" x2="56127" y2= "4657" />
  <line class="fil0 str0" x1="56233" y1="5715" x2="56233" y2= "6068" />
  <rect class="fil1" x="56215" y="6050" width="35" height="35"/>
  <rect class="fil1" x="56215" y="6050" width="35" height="35"/>
  <rect class="fil1" x="56215" y="6050" width="35" height="35"/>
  <rect class="fil1" x="56215" y="6050" width="35" height="35"/>
  <line class="fil0 str0" x1="56233" y1="6068" x2="56233" y2= "6421" />
  <line class="fil0 str0" x1="56233" y1="6421" x2="56304" y2= "6209" />
  <line class="fil0 str0" x1="56233" y1="6421" x2="56127" y2= "6209" />
  <line class="fil0 str0" x1="56233" y1="7267" x2="56233" y2= "7620" />
  <rect class="fil1" x="56215" y="7602" width="35" height="35"/>
  <line class="fil0 str0" x1="56233" y1="7620" x2="54469" y2= "7620" />
  <rect class="fil1" x="54452" y="7602" width="35" height="35"/>
  <rect class="fil1" x="54452" y="7602" width="35" height="35"/>
  <line class="fil0 str0" x1="54469" y1="7620" x2="54469" y2= "7973" />
  <line class="fil0 str0" x1="54469" y1="7973" x2="54540" y2= "7761" />
  <line class="fil0 str0" x1="54469" y1="7973" x2="54399" y2= "7761" />
  <line class="fil0 str0" x1="54469" y1="8819" x2="54469" y2= "9172" />
  <rect class="fil1" x="54452" y="9155" width="35" height="35"/>
  <rect class="fil1" x="54452" y="9155" width="35" height="35"/>
  <rect class="fil1" x="54452" y="9155" width="35" height="35"/>
  <rect class="fil1" x="54452" y="9155" width="35" height="35"/>
  <line class="fil0 str0" x1="54469" y1="9172" x2="54469" y2= "9525" />
  <line class="fil0 str0" x1="54469" y1="9525" x2="54540" y2= "9313" />
  <line class="fil0 str0" x1="54469" y1="9525" x2="54399" y2= "9313" />
  <path class="fil1" d="M54398 10274l0 -37c-19,-3 -33,-7 -45,-13 -12,-6 -22,-16 -31,-29 -8,-13 -13,-30 -15,-49l37 -7c3,20 8,35 16,44 10,13 23,20 37,23l0 -119c-15,-3 -31,-9 -47,-18 -12,-7 -21,-16 -27,-27 -6,-12 -10,-25 -10,-40 0,-26 10,-48 28,-64 12,-11 31,-18 56,-20l0 -18 22 0 0 18c21,2 39,8 51,19 17,13 27,32 30,55l-39 6c-2,-15 -7,-26 -14,-34 -7,-8 -17,-13 -29,-15l0 107c19,5 31,8 37,11 11,5 21,11 28,19 7,7 13,16 17,26 4,10 6,21 6,33 0,26 -8,47 -25,65 -17,17 -37,26 -64,28l0 37 -22 0zm0 -326c-14,2 -25,8 -34,17 -8,10 -12,20 -12,34 0,12 4,23 10,32 7,8 19,16 36,20l0 -103zm22 258c15,-2 26,-8 35,-19 10,-11 15,-24 15,-40 0,-13 -3,-24 -10,-32 -7,-8 -20,-15 -40,-22l0 114zm135 25l0 -303 37 0 0 303 -37 0z"/>
  <polygon class="fil0 str0" points="53940,10372 54998,10372 54998,9525 53940,9525 "/>
  <path class="fil1" d="M53830 8678l0 -303 40 0 0 267 149 0 0 36 -189 0zm204 0l116 -303 43 0 124 303 -45 0 -36 -92 -126 0 -33 92 -42 0zm87 -125l103 0 -31 -84c-10,-25 -17,-46 -21,-63 -4,19 -10,39 -17,58l-33 89zm226 125l0 -303 114 0c23,0 42,3 56,9 14,6 25,16 32,29 8,13 12,26 12,40 0,13 -4,25 -10,36 -7,11 -18,20 -32,28 19,6 33,15 42,28 10,13 15,29 15,46 0,14 -3,27 -9,39 -6,12 -13,22 -22,29 -9,6 -20,12 -33,15 -14,3 -30,5 -49,5l-116 0zm40 -176l66 0c18,0 31,-1 38,-4 10,-3 18,-8 23,-15 5,-7 8,-16 8,-27 0,-10 -2,-19 -7,-26 -5,-7 -12,-13 -21,-16 -9,-3 -25,-4 -46,-4l-61 0 0 92zm0 140l76 0c13,0 22,0 27,-1 10,-1 17,-4 23,-8 6,-4 11,-10 15,-17 4,-7 6,-16 6,-25 0,-12 -3,-22 -9,-30 -6,-8 -14,-14 -24,-18 -10,-3 -25,-5 -44,-5l-70 0 0 104zm245 36l0 -303 219 0 0 36 -178 0 0 93 168 0 0 36 -168 0 0 103 186 0 0 36 -226 0zm280 0l0 -303 40 0 0 267 149 0 0 36 -190 0z"/>
  <polygon class="fil0 str0" points="53587,8819 55386,8819 55386,7973 53587,7973 "/>
  <line class="fil0 str0" x1="56233" y1="7267" x2="56233" y2= "7620" />
  <rect class="fil1" x="56215" y="7602" width="35" height="35"/>
  <line class="fil0 str0" x1="56233" y1="7620" x2="57468" y2= "7620" />
  <rect class="fil1" x="57450" y="7602" width="35" height="35"/>
  <rect class="fil1" x="57450" y="7602" width="35" height="35"/>
  <line class="fil0 str0" x1="57468" y1="7620" x2="57468" y2= "7973" />
  <line class="fil0 str0" x1="57468" y1="7973" x2="57538" y2= "7761" />
  <line class="fil0 str0" x1="57468" y1="7973" x2="57397" y2= "7761" />
  <line class="fil0 str0" x1="57468" y1="8819" x2="57468" y2= "9172" />
  <rect class="fil1" x="57450" y="9155" width="35" height="35"/>
  <rect class="fil1" x="57450" y="9155" width="35" height="35"/>
  <rect class="fil1" x="57450" y="9155" width="35" height="35"/>
  <rect class="fil1" x="57450" y="9155" width="35" height="35"/>
  <line class="fil0 str0" x1="57468" y1="9172" x2="57468" y2= "9525" />
  <line class="fil0 str0" x1="57468" y1="9525" x2="57538" y2= "9313" />
  <line class="fil0 str0" x1="57468" y1="9525" x2="57397" y2= "9313" />
  <path class="fil1" d="M57326 10274l0 -37c-18,-3 -33,-7 -45,-13 -12,-6 -22,-16 -30,-29 -8,-13 -14,-30 -15,-49l37 -7c3,20 8,35 15,44 11,13 23,20 37,23l0 -119c-15,-3 -31,-9 -46,-18 -12,-7 -21,-16 -28,-27 -6,-12 -9,-25 -9,-40 0,-26 9,-48 28,-64 12,-11 31,-18 55,-20l0 -18 22 0 0 18c22,2 39,8 51,19 17,13 27,32 30,55l-39 6c-2,-15 -6,-26 -14,-34 -7,-8 -17,-13 -29,-15l0 107c19,5 31,8 37,11 11,5 21,11 28,19 8,7 13,16 17,26 4,10 6,21 6,33 0,26 -8,47 -25,65 -16,17 -37,26 -64,28l0 37 -22 0zm0 -326c-14,2 -25,8 -34,17 -8,10 -12,20 -12,34 0,12 4,23 11,32 7,8 19,16 35,20l0 -103zm22 258c15,-2 26,-8 36,-19 10,-11 15,-24 15,-40 0,-13 -4,-24 -10,-32 -6,-8 -20,-15 -40,-22l0 114zm286 -46l38 4c-6,23 -17,40 -33,53 -17,12 -37,19 -63,19 -32,0 -58,-10 -76,-30 -19,-20 -29,-48 -29,-83 0,-37 9,-65 29,-86 19,-20 44,-31 74,-31 29,0 53,10 72,30 19,20 28,48 28,85 0,2 0,5 0,10l-164 0c2,24 8,43 20,55 12,13 27,19 46,19 14,0 25,-4 35,-11 10,-7 17,-18 23,-34zm-122 -60l122 0c-2,-19 -6,-33 -14,-42 -12,-14 -28,-22 -46,-22 -17,0 -32,6 -43,17 -12,12 -18,27 -19,47z"/>
  <polygon class="fil0 str0" points="56939,10372 57997,10372 57997,9525 56939,9525 "/>
  <path class="fil1" d="M56303 8678l116 -303 43 0 124 303 -46 0 -35 -92 -126 0 -33 92 -43 0zm88 -125l103 0 -32 -84c-10,-25 -17,-46 -21,-63 -4,19 -10,39 -17,58l-33 89zm228 125l0 -303 104 0c24,0 42,1 54,4 17,4 32,11 44,22 16,14 28,31 36,52 8,21 12,45 12,72 0,23 -3,43 -8,61 -5,18 -12,32 -21,44 -8,12 -18,21 -28,28 -10,7 -22,12 -36,15 -15,4 -30,5 -48,5l-110 0zm40 -36l64 0c21,0 37,-2 48,-5 11,-4 20,-9 27,-16 10,-10 17,-22 23,-38 5,-16 8,-36 8,-59 0,-32 -6,-56 -16,-73 -10,-17 -23,-29 -38,-35 -11,-4 -28,-6 -52,-6l-64 0 0 231zm352 36l-117 -303 44 0 79 220c6,18 11,34 16,49 4,-17 10,-33 17,-49l81 -220 41 0 -119 303 -41 0zm157 84l0 -27 247 0 0 27 -247 0zm282 -84l0 -303 40 0 0 303 -40 0zm110 0l0 -303 105 0c24,0 41,1 54,4 17,4 32,11 44,22 16,14 28,31 36,52 8,21 12,45 12,72 0,23 -2,43 -8,61 -5,18 -12,32 -21,44 -8,12 -18,21 -28,28 -10,7 -23,12 -36,15 -14,4 -30,5 -49,5l-110 0zm40 -36l64 0c21,0 36,-2 48,-5 11,-4 20,-9 27,-16 10,-10 17,-22 22,-38 6,-16 8,-36 8,-59 0,-32 -5,-56 -15,-73 -11,-17 -23,-29 -38,-35 -11,-4 -29,-6 -52,-6l-64 0 0 231zm267 36l0 -303 219 0 0 36 -178 0 0 93 168 0 0 36 -168 0 0 103 186 0 0 36 -226 0zm281 0l0 -303 41 0 159 238 0 -238 39 0 0 303 -41 0 -159 -238 0 238 -38 0zm383 0l0 -267 -100 0 0 -36 240 0 0 36 -100 0 0 267 -40 0z"/>
  <polygon class="fil0 str0" points="56092,8819 58879,8819 58879,7973 56092,7973 "/>
  <path class="fil1" d="M54715 7126l116 -303 43 0 124 303 -46 0 -35 -92 -126 0 -33 92 -43 0zm88 -125l103 0 -32 -84c-10,-25 -17,-46 -21,-63 -4,19 -10,39 -17,58l-33 89zm366 125l0 -28c-14,22 -34,32 -61,32 -18,0 -34,-5 -49,-14 -15,-10 -26,-23 -34,-41 -8,-17 -12,-37 -12,-60 0,-22 4,-42 11,-60 7,-18 18,-32 33,-41 15,-10 31,-14 49,-14 13,0 25,3 35,8 10,5 19,12 25,21l0 -108 37 0 0 303 -35 0zm-118 -110c0,28 6,49 18,63 12,14 26,21 42,21 16,0 30,-7 41,-20 12,-13 17,-33 17,-61 0,-30 -6,-52 -17,-66 -12,-14 -26,-21 -43,-21 -17,0 -30,7 -41,20 -11,13 -17,35 -17,64zm353 110l0 -28c-14,22 -35,32 -62,32 -18,0 -34,-5 -48,-14 -15,-10 -26,-23 -34,-41 -8,-17 -12,-37 -12,-60 0,-22 4,-42 11,-60 7,-18 18,-32 33,-41 15,-10 31,-14 49,-14 13,0 25,3 35,8 11,5 19,12 25,21l0 -108 37 0 0 303 -34 0zm-118 -110c0,28 6,49 18,63 12,14 26,21 42,21 16,0 29,-7 41,-20 11,-13 17,-33 17,-61 0,-30 -6,-52 -17,-66 -12,-14 -26,-21 -43,-21 -17,0 -31,7 -41,20 -11,13 -17,35 -17,64zm213 110l0 -303 40 0 0 267 149 0 0 36 -189 0zm376 -27c-14,12 -27,20 -40,25 -13,5 -27,7 -41,7 -24,0 -43,-6 -56,-18 -13,-12 -20,-27 -20,-45 0,-11 3,-20 8,-30 4,-9 11,-16 19,-22 8,-5 17,-9 27,-12 7,-2 18,-4 33,-6 29,-4 52,-8 66,-13 0,-5 0,-8 0,-10 0,-16 -4,-26 -11,-32 -9,-8 -23,-12 -42,-12 -17,0 -30,3 -38,9 -8,6 -15,17 -19,32l-37 -5c4,-16 9,-28 17,-38 8,-10 19,-17 33,-22 15,-5 31,-8 50,-8 19,0 34,2 46,7 12,4 21,10 26,17 5,6 9,15 12,25 1,6 1,18 1,34l0 50c0,35 1,56 3,66 2,9 5,18 10,26l-39 0c-4,-8 -6,-17 -7,-27zm-3 -83c-14,5 -34,10 -61,14 -16,2 -26,5 -33,7 -6,3 -11,7 -14,12 -4,5 -6,11 -6,18 0,10 4,18 11,25 8,7 19,10 33,10 14,0 27,-3 38,-9 11,-6 20,-15 25,-26 4,-8 6,-21 6,-37l0 -14zm129 110l-35 0 0 -303 37 0 0 108c16,-19 36,-29 60,-29 13,0 26,3 38,8 12,5 22,13 30,23 8,10 14,22 18,36 4,14 7,29 7,45 0,37 -10,66 -28,87 -19,20 -41,31 -67,31 -26,0 -46,-11 -61,-32l0 28zm0 -111c0,26 4,45 11,57 12,19 28,29 48,29 16,0 30,-7 42,-21 12,-14 18,-35 18,-63 0,-29 -6,-50 -17,-64 -11,-14 -25,-20 -41,-20 -16,0 -30,7 -42,21 -12,14 -18,35 -18,61zm352 41l39 4c-6,23 -17,40 -33,53 -17,12 -37,19 -63,19 -32,0 -58,-10 -76,-30 -19,-20 -29,-48 -29,-83 0,-37 9,-65 29,-86 19,-20 44,-31 74,-31 29,0 54,10 72,30 19,20 27,48 27,85 0,2 0,5 0,10l-164 0c2,24 8,43 21,55 12,13 27,19 46,19 13,0 25,-4 35,-11 10,-7 17,-18 23,-34zm-122 -60l122 0c-2,-19 -6,-33 -14,-42 -12,-14 -27,-22 -46,-22 -17,0 -31,6 -43,17 -12,12 -18,27 -19,47zm206 131l0 -303 37 0 0 303 -37 0zm66 0l116 -303 43 0 124 303 -46 0 -36 -92 -126 0 -34 92 -42 0zm87 -125l103 0 -31 -84c-10,-25 -17,-46 -21,-63 -4,19 -10,39 -17,58l-33 89zm367 44l37 5c-4,25 -15,44 -31,59 -17,14 -37,22 -60,22 -30,0 -54,-10 -73,-30 -18,-19 -27,-48 -27,-84 0,-24 4,-44 12,-62 8,-18 20,-31 36,-40 16,-9 33,-13 53,-13 23,0 43,6 58,18 15,12 25,29 29,52l-36 6c-3,-15 -9,-26 -18,-34 -9,-7 -20,-11 -32,-11 -19,0 -34,7 -46,20 -12,13 -17,35 -17,64 0,30 6,51 17,64 11,13 26,20 44,20 15,0 27,-5 37,-13 10,-9 16,-23 19,-41zm149 47l6 32c-11,2 -20,4 -28,4 -14,0 -24,-2 -31,-6 -8,-4 -13,-10 -16,-17 -3,-7 -4,-22 -4,-44l0 -126 -27 0 0 -29 27 0 0 -55 37 -22 0 77 37 0 0 29 -37 0 0 128c0,11 1,18 2,20 2,3 4,5 6,7 3,2 7,2 13,2 4,0 10,0 17,-1zm37 -227l0 -43 37 0 0 43 -37 0zm0 260l0 -219 37 0 0 219 -37 0zm80 -110c0,-41 11,-71 34,-90 19,-16 41,-24 69,-24 30,0 54,10 74,30 20,19 29,47 29,82 0,28 -4,50 -12,67 -8,16 -21,29 -37,38 -17,9 -34,13 -53,13 -31,0 -56,-10 -74,-30 -19,-19 -29,-48 -29,-85zm38 0c0,28 6,49 19,63 12,14 28,21 46,21 19,0 34,-7 46,-21 12,-14 19,-35 19,-64 0,-27 -6,-48 -19,-62 -12,-14 -27,-21 -46,-21 -19,0 -34,7 -46,20 -12,14 -19,35 -19,63zm211 110l0 -219 33 0 0 31c17,-24 39,-36 70,-36 13,0 25,2 37,7 11,5 19,11 25,19 6,7 9,17 12,27 1,7 1,19 1,36l0 135 -37 0 0 -133c0,-16 -1,-27 -4,-34 -3,-7 -8,-13 -16,-18 -7,-5 -16,-7 -26,-7 -16,0 -29,5 -41,15 -12,10 -18,29 -18,57l0 120 -37 0z"/>
  <polygon class="fil0 str0" points="54222,7267 58244,7267 58244,6421 54222,6421 "/>
  <path class="fil1" d="M55527 5574l116 -303 43 0 124 303 -46 0 -36 -92 -126 0 -34 92 -43 0zm88 -125l102 0 -31 -84c-10,-25 -17,-46 -21,-63 -4,19 -10,39 -17,58l-33 89zm367 44l36 5c-4,25 -14,44 -31,59 -17,14 -37,22 -61,22 -30,0 -54,-10 -73,-30 -18,-19 -27,-48 -27,-84 0,-24 4,-44 12,-62 8,-18 20,-31 35,-40 17,-9 33,-13 53,-13 23,0 43,6 58,18 16,12 25,29 30,52l-36 6c-3,-15 -10,-26 -19,-34 -9,-7 -19,-11 -32,-11 -19,0 -34,7 -46,20 -11,13 -17,35 -17,64 0,30 6,51 17,64 11,13 25,20 44,20 15,0 27,-5 36,-13 10,-9 17,-23 19,-41zm149 47l5 32c-10,2 -20,4 -28,4 -14,0 -25,-2 -31,-6 -8,-4 -13,-10 -16,-17 -3,-7 -4,-22 -4,-44l0 -126 -27 0 0 -29 27 0 0 -55 37 -22 0 77 37 0 0 29 -37 0 0 128c0,11 0,18 2,20 2,3 4,5 6,7 3,2 7,2 13,2 4,0 10,0 17,-1zm36 -227l0 -43 38 0 0 43 -38 0zm0 260l0 -219 38 0 0 219 -38 0zm81 -110c0,-41 11,-71 33,-90 19,-16 42,-24 69,-24 30,0 54,10 74,30 19,19 29,47 29,82 0,28 -4,50 -12,67 -8,16 -21,29 -37,38 -16,9 -34,13 -53,13 -31,0 -56,-10 -75,-30 -19,-19 -28,-48 -28,-85zm38 0c0,28 6,49 19,63 12,14 28,21 46,21 19,0 34,-7 46,-21 12,-14 18,-35 18,-64 0,-27 -6,-48 -19,-62 -12,-14 -27,-21 -46,-21 -19,0 -34,7 -46,20 -12,14 -19,35 -19,63zm211 110l0 -219 33 0 0 31c17,-24 40,-36 70,-36 13,0 25,2 37,7 11,5 19,11 25,19 5,7 9,17 11,27 2,7 2,19 2,36l0 135 -37 0 0 -133c0,-16 -1,-27 -4,-34 -3,-7 -8,-13 -16,-18 -7,-5 -16,-7 -26,-7 -16,0 -29,5 -41,15 -11,10 -17,29 -17,57l0 120 -37 0zm221 -66l37 -6c2,15 8,26 17,34 10,8 23,12 40,12 17,0 30,-4 38,-10 8,-7 12,-15 12,-25 0,-8 -4,-15 -11,-20 -5,-4 -18,-7 -38,-13 -27,-7 -46,-13 -56,-18 -10,-5 -19,-12 -24,-20 -5,-9 -8,-19 -8,-30 0,-10 2,-18 7,-27 4,-9 10,-16 18,-21 6,-4 14,-7 23,-10 10,-3 21,-5 33,-5 17,0 32,2 45,7 13,5 23,12 29,20 6,9 10,20 12,34l-36 5c-1,-11 -6,-20 -14,-26 -8,-6 -19,-10 -34,-10 -17,0 -29,3 -36,9 -8,6 -11,12 -11,20 0,5 2,9 4,13 3,4 8,7 15,10 4,1 15,5 33,10 27,7 45,13 56,18 10,4 18,11 24,19 6,8 8,19 8,32 0,13 -3,24 -10,35 -7,11 -18,19 -31,25 -14,6 -29,9 -47,9 -29,0 -50,-6 -65,-18 -15,-12 -24,-29 -28,-53z"/>
  <polygon class="fil0 str0" points="55069,5715 57362,5715 57362,4868 55069,4868 "/>
  <path class="fil1" d="M30886 3942l39 -3c3,19 10,33 20,43 11,10 23,14 38,14 18,0 32,-7 45,-20 12,-13 19,-31 19,-53 0,-22 -6,-38 -18,-50 -12,-12 -28,-19 -47,-19 -12,0 -22,3 -32,8 -10,5 -17,12 -23,21l-35 -4 29 -156 151 0 0 35 -121 0 -16 81c18,-13 37,-19 57,-19 26,0 49,9 67,28 18,18 27,42 27,71 0,27 -8,51 -24,71 -20,24 -46,36 -79,36 -28,0 -50,-8 -68,-23 -17,-15 -28,-36 -30,-61z"/>
  <polygon class="fil0 str0" points="30621,4163 31433,4163 31433,3316 30621,3316 "/>
  <path class="fil1" d="M30302 2469l0 -303 134 0c27,0 48,2 62,8 14,6 25,15 34,29 8,14 13,29 13,46 0,22 -7,40 -21,55 -14,14 -36,24 -65,28 11,5 19,10 24,15 12,11 23,24 33,40l53 83 -51 0 -40 -63c-12,-18 -21,-32 -29,-42 -7,-10 -14,-16 -20,-20 -6,-4 -12,-7 -18,-9 -4,-1 -12,-1 -22,-1l-47 0 0 134 -40 0zm40 -169l86 0c18,0 32,-2 43,-6 11,-4 18,-10 24,-18 6,-8 8,-17 8,-27 0,-14 -5,-26 -16,-35 -11,-9 -27,-14 -49,-14l-96 0 0 100zm464 -134l40 0 0 175c0,30 -4,54 -11,72 -7,18 -19,32 -37,43 -18,11 -42,17 -71,17 -28,0 -52,-5 -70,-14 -18,-10 -31,-24 -39,-43 -8,-18 -12,-44 -12,-75l0 -175 40 0 0 175c0,26 2,46 8,59 5,12 13,22 25,29 12,7 27,10 44,10 29,0 50,-7 63,-20 12,-13 19,-39 19,-77l0 -175zm105 303l0 -303 40 0 0 267 149 0 0 36 -189 0zm238 0l0 -303 219 0 0 36 -179 0 0 93 168 0 0 36 -168 0 0 103 186 0 0 36 -226 0zm268 -98l37 -3c2,16 6,28 13,37 7,10 17,18 31,24 14,6 29,9 47,9 15,0 28,-2 40,-7 12,-5 20,-11 26,-19 6,-8 8,-17 8,-26 0,-10 -3,-18 -8,-25 -6,-7 -14,-13 -27,-18 -8,-3 -26,-8 -54,-15 -28,-7 -47,-13 -58,-19 -14,-8 -25,-17 -32,-28 -7,-11 -11,-24 -11,-38 0,-15 5,-29 13,-43 9,-13 22,-23 38,-30 17,-7 35,-10 55,-10 23,0 42,4 60,11 17,7 30,18 39,32 9,14 14,30 15,48l-38 3c-2,-19 -9,-34 -21,-43 -12,-10 -30,-14 -53,-14 -24,0 -42,4 -53,13 -11,9 -17,19 -17,32 0,11 4,20 12,27 8,7 28,14 60,22 32,7 55,14 67,19 18,8 31,19 39,31 8,12 12,27 12,43 0,16 -5,31 -14,45 -9,14 -22,25 -40,33 -17,8 -37,12 -59,12 -28,0 -50,-4 -69,-12 -18,-8 -33,-20 -43,-36 -11,-16 -16,-34 -16,-55z"/>
  <polygon class="fil0 str0" points="30127,2611 31927,2611 31927,1764 30127,1764 "/>
  <path class="fil1" d="M29309 917l0 -219 33 0 0 31c16,-24 40,-36 70,-36 13,0 25,2 37,7 11,5 19,11 25,19 5,7 9,17 12,27 1,7 1,19 1,36l0 135 -37 0 0 -133c0,-16 -1,-27 -5,-34 -3,-7 -8,-13 -16,-18 -7,-5 -16,-7 -26,-7 -16,0 -30,5 -41,15 -12,10 -18,29 -18,57l0 120 -37 0zm235 -260l0 -43 37 0 0 43 -37 0zm0 260l0 -219 37 0 0 219 -37 0zm93 0l0 -303 37 0 0 303 -37 0z"/>
  <polygon class="fil0 str0" points="28857,1058 30163,1058 30163,212 28857,212 "/>
 </g>
</svg>
